<?xml version="1.0" encoding="UTF-8" standalone="no"?>
<!-- Created with Inkscape (http://www.inkscape.org/) -->

<svg
   xmlns:dc="http://purl.org/dc/elements/1.1/"
   xmlns:cc="http://creativecommons.org/ns#"
   xmlns:rdf="http://www.w3.org/1999/02/22-rdf-syntax-ns#"
   xmlns:svg="http://www.w3.org/2000/svg"
   xmlns="http://www.w3.org/2000/svg"
   xmlns:sodipodi="http://sodipodi.sourceforge.net/DTD/sodipodi-0.dtd"
   xmlns:inkscape="http://www.inkscape.org/namespaces/inkscape"
   width="140mm"
   height="60mm"
   viewBox="0 0 140 60"
   version="1.1"
   id="svg8"
   inkscape:version="0.92.3 (2405546, 2018-03-11)"
   sodipodi:docname="logo.svg">
  <defs
     id="defs2" />
  <sodipodi:namedview
     id="base"
     pagecolor="#ffffff"
     bordercolor="#666666"
     borderopacity="1.0"
     inkscape:pageopacity="0.0"
     inkscape:pageshadow="2"
     inkscape:zoom="0.98994949"
     inkscape:cx="-18.395279"
     inkscape:cy="130.34632"
     inkscape:document-units="px"
     inkscape:current-layer="layer1"
     showgrid="false"
     inkscape:window-width="1920"
     inkscape:window-height="1018"
     inkscape:window-x="-8"
     inkscape:window-y="-8"
     inkscape:window-maximized="1"
     fit-margin-top="0"
     fit-margin-left="0"
     fit-margin-right="0"
     fit-margin-bottom="0" />
  <metadata
     id="metadata5">
    <rdf:RDF>
      <cc:Work
         rdf:about="">
        <dc:format>image/svg+xml</dc:format>
        <dc:type
           rdf:resource="http://purl.org/dc/dcmitype/StillImage" />
        <dc:title />
      </cc:Work>
    </rdf:RDF>
  </metadata>
  <g
     inkscape:groupmode="layer"
     id="layer2"
     inkscape:label="Layer 2"
     transform="translate(-74.970545,-88.801726)">
    <path
       style="display:inline;opacity:1;fill:#004071;fill-opacity:1;stroke:#000000;stroke-width:0;stroke-linejoin:round;stroke-miterlimit:4;stroke-dasharray:none;stroke-opacity:1"
       d="m 153.64858,127.55228 h 18.83698 v 1.12979 h -18.83698 z"
       id="rect4542"
       inkscape:connector-curvature="0" />
    <path
       style="display:inline;opacity:1;fill:#004071;fill-opacity:1;stroke:#000000;stroke-width:0;stroke-linejoin:round;stroke-miterlimit:4;stroke-dasharray:none;stroke-opacity:1"
       d="m 184.76919,127.54586 h 14.00969 v 1.1298 h -14.00969 z"
       id="rect4542-4"
       inkscape:connector-curvature="0" />
  </g>
  <g
     inkscape:label="Layer 1"
     inkscape:groupmode="layer"
     id="layer1"
     style="display:inline"
     transform="translate(-74.970545,-88.801726)">
    <g
       aria-label="JNS"
       style="font-style:normal;font-weight:normal;font-size:39.07641983px;line-height:1.25;font-family:sans-serif;letter-spacing:0px;word-spacing:0px;fill:#000000;fill-opacity:1;stroke:none;stroke-width:0.97691053"
       id="text817"
       transform="matrix(0.83263279,0,0,0.83263279,24.246052,19.957778)">
      <path
         d="m 80.143812,123.00541 h 3.663414 q -0.01908,0.20988 -0.03816,0.45793 0,0.22896 0,0.70597 0,2.78572 1.049415,4.04502 1.049416,1.24022 3.377211,1.24022 1.450101,0 2.404115,-0.51517 0.954014,-0.51517 1.507343,-1.60275 0.248043,-0.51516 0.343445,-1.43102 0.114481,-0.93493 0.114481,-3.12916 v -18.775 h 3.835137 v 20.3205 q 0,4.3503 -1.984349,6.44913 -1.98435,2.07976 -6.143851,2.07976 -4.083181,0 -6.124771,-2.15608 -2.04159,-2.15607 -2.04159,-6.48729 0,-0.47701 0,-0.72505 0.01908,-0.26713 0.03816,-0.47701 z"
         style="font-style:normal;font-variant:normal;font-weight:normal;font-stretch:normal;font-family:'Swis721 BT';-inkscape-font-specification:'Swis721 BT';fill:#ff6300;fill-opacity:1;stroke-width:0.97691053"
         id="path838"
         inkscape:connector-curvature="0" />
      <path
         d="m 102.14338,132.1067 v -28.10525 h 4.17858 l 13.12724,20.4159 q 0.43884,0.66781 0.76321,1.2593 0.32436,0.59149 0.51516,1.10666 v -22.78186 h 3.64434 v 28.10525 h -4.14042 l -13.41344,-20.7021 q -0.30529,-0.47701 -0.57241,-0.99218 -0.24804,-0.51516 -0.47701,-1.08757 v 22.78185 z"
         style="font-style:normal;font-variant:normal;font-weight:normal;font-stretch:normal;font-family:'Swis721 BT';-inkscape-font-specification:'Swis721 BT';fill:#ff6300;fill-opacity:1;stroke-width:0.97691053"
         id="path840"
         inkscape:connector-curvature="0" />
      <path
         d="m 129.04658,122.85277 h 3.68249 q 0.0572,3.05284 2.02251,4.86547 1.98435,1.81263 5.28524,1.81263 3.26273,0 5.1326,-1.37378 1.88895,-1.37378 1.88895,-3.73974 0,-3.22457 -7.05971,-4.90363 -0.41976,-0.0954 -0.64873,-0.15264 -5.72408,-1.3547 -7.57487,-3.01469 -1.83171,-1.67906 -1.83171,-4.75099 0,-3.75882 2.74756,-6.02937 2.74756,-2.28963 7.30775,-2.28963 4.65559,0 7.32683,2.40411 2.67124,2.38504 2.7094,6.56362 l -3.64433,0.0191 q -0.19081,-2.82388 -1.92711,-4.33122 -1.71723,-1.50735 -4.71283,-1.50735 -2.8048,0 -4.48387,1.24022 -1.67906,1.22114 -1.67906,3.26273 0,3.26273 6.94522,4.86547 1.03033,0.24805 1.58366,0.38161 l 0.40069,0.0954 q 4.54111,1.08758 6.02937,2.34687 1.12573,0.95402 1.71722,2.3278 0.59149,1.3547 0.59149,3.03376 0,4.0641 -2.91928,6.46822 -2.9002,2.40412 -7.86108,2.40412 -5.11351,0 -7.97556,-2.57584 -2.84296,-2.59492 -3.05284,-7.42223 z"
         style="font-style:normal;font-variant:normal;font-weight:normal;font-stretch:normal;font-family:'Swis721 BT';-inkscape-font-specification:'Swis721 BT';fill:#ff6300;fill-opacity:1;stroke-width:0.97691053"
         id="path842"
         inkscape:connector-curvature="0" />
    </g>
    <g
       aria-label="logic"
       style="font-style:normal;font-variant:normal;font-weight:normal;font-stretch:normal;font-size:39.07641983px;line-height:1.25;font-family:'Arabic Typesetting';-inkscape-font-specification:'Arabic Typesetting, Normal';font-variant-ligatures:normal;font-variant-caps:normal;font-variant-numeric:normal;font-feature-settings:normal;text-align:start;letter-spacing:0px;word-spacing:0px;writing-mode:lr-tb;text-anchor:start;fill:#004071;fill-opacity:1;stroke:none;stroke-width:0.97691053"
       id="text821"
       transform="matrix(0.83263279,0,0,0.83263279,24.246052,19.957778)">
      <path
         d="m 162.84429,105.98359 q -0.0763,0.49609 -0.13357,1.14482 -0.0572,0.62965 -0.0954,1.27838 -0.0191,0.64873 -0.0382,1.22113 0,0.57241 0,0.91586 v 13.7378 q 0,0.45793 0.0572,0.74413 0.0572,0.26713 0.26713,0.41977 0.20988,0.15264 0.61057,0.20988 0.40068,0.0572 1.10665,0.0954 l -0.0382,0.70597 q -0.61057,0 -1.46918,-0.0191 -0.83953,-0.0191 -1.75539,-0.0191 -0.74413,0 -1.46918,0.0191 -0.72505,0.0191 -1.2593,0.0191 l -0.0572,-0.61057 q 0.64873,-0.0572 1.03034,-0.15264 0.40068,-0.11448 0.61057,-0.36252 0.20988,-0.24805 0.26712,-0.66781 0.0763,-0.43885 0.0763,-1.1639 v -14.25297 q 0,-0.55333 -0.0572,-0.85861 -0.0572,-0.32437 -0.26712,-0.49609 -0.20989,-0.17172 -0.61057,-0.26713 -0.38161,-0.0954 -1.04942,-0.20988 l -0.0572,-0.55333 q 0.57241,-0.11448 1.18298,-0.24804 0.61057,-0.13356 1.1639,-0.26712 0.57241,-0.13357 1.03033,-0.26713 0.45793,-0.13356 0.74413,-0.24804 z"
         style="font-style:normal;font-variant:normal;font-weight:normal;font-stretch:normal;font-size:39.07641983px;line-height:1;font-family:'Arabic Typesetting';-inkscape-font-specification:'Arabic Typesetting, Normal';font-variant-ligatures:normal;font-variant-caps:normal;font-variant-numeric:normal;font-feature-settings:normal;text-align:start;writing-mode:lr-tb;text-anchor:start;fill:#004071;fill-opacity:1;stroke-width:0.97691053"
         id="path827"
         inkscape:connector-curvature="0" />
      <path
         d="m 166.04977,121.13333 q 0,-1.22113 0.43885,-2.30871 0.45793,-1.08758 1.22114,-1.88895 0.78229,-0.80137 1.83171,-1.2593 1.04941,-0.477 2.25147,-0.477 1.29746,0 2.36595,0.45792 1.0685,0.43885 1.81263,1.22114 0.76321,0.76321 1.1639,1.81263 0.41976,1.03033 0.41976,2.21331 0,1.24022 -0.45792,2.3278 -0.43885,1.06849 -1.22114,1.86986 -0.76321,0.80138 -1.83171,1.27838 -1.04941,0.45793 -2.25147,0.45793 -1.29746,0 -2.36596,-0.43885 -1.04941,-0.45792 -1.81262,-1.22114 -0.74413,-0.78229 -1.1639,-1.81262 -0.40069,-1.04942 -0.40069,-2.2324 z m 5.99121,4.77008 q 0.83953,0 1.43102,-0.40069 0.61057,-0.40069 0.99218,-1.03034 0.40068,-0.62965 0.57241,-1.41194 0.1908,-0.78229 0.1908,-1.56458 0,-0.91585 -0.20988,-1.86987 -0.19081,-0.95401 -0.62965,-1.71722 -0.43885,-0.78229 -1.14482,-1.27838 -0.68689,-0.49609 -1.67906,-0.49609 -0.85862,0 -1.46919,0.40069 -0.59149,0.3816 -0.97309,1.01125 -0.38161,0.62965 -0.57241,1.41194 -0.17172,0.78229 -0.17172,1.56459 0,0.87769 0.20988,1.8317 0.20988,0.95402 0.64873,1.73631 0.43885,0.78229 1.12574,1.29746 0.70597,0.51517 1.67906,0.51517 z"
         style="font-style:normal;font-variant:normal;font-weight:normal;font-stretch:normal;font-size:39.07641983px;line-height:1;font-family:'Arabic Typesetting';-inkscape-font-specification:'Arabic Typesetting, Normal';font-variant-ligatures:normal;font-variant-caps:normal;font-variant-numeric:normal;font-feature-settings:normal;text-align:start;writing-mode:lr-tb;text-anchor:start;fill:#004071;fill-opacity:1;stroke-width:0.97691053"
         id="path829"
         inkscape:connector-curvature="0" />
      <path
         d="m 179.88298,119.72139 q 0,-0.95401 0.3816,-1.77446 0.40069,-0.83954 1.04942,-1.4501 0.66781,-0.61057 1.52642,-0.95402 0.85861,-0.34344 1.81263,-0.34344 1.52642,0 2.63308,0.64873 0.20988,0.13356 0.3816,0.1908 0.19081,0.0382 0.43885,0.0382 0.20988,-0.0191 0.30528,-0.0191 l 2.91929,-0.20988 0.13356,0.15264 -0.11448,1.10665 h -2.69032 q 0.78229,1.01126 0.78229,2.2324 0,1.12573 -0.45793,1.98435 -0.43884,0.85861 -1.16389,1.4501 -0.70597,0.57241 -1.58367,0.87769 -0.85861,0.28621 -1.69814,0.28621 -0.74413,0 -1.58367,-0.19081 -0.43884,0.20989 -0.74413,0.62965 -0.2862,0.40069 -0.2862,0.76321 0,0.26713 0.1908,0.47701 0.20988,0.1908 0.49609,0.32437 0.30528,0.13356 0.62965,0.1908 0.34344,0.0572 0.61057,0.0572 0.74413,0 1.5455,-0.0191 0.82045,-0.0382 1.52642,-0.0382 0.76321,0 1.52643,0.15264 0.76321,0.13356 1.37378,0.49609 0.62964,0.3816 1.01125,1.03033 0.38161,0.64873 0.38161,1.64091 0,1.20206 -0.53425,2.25147 -0.53425,1.0685 -1.48826,1.83171 -0.95402,0.78229 -2.28964,1.22114 -1.31654,0.45792 -2.9002,0.45792 -0.82045,0 -1.69815,-0.22896 -0.85861,-0.20988 -1.56458,-0.66781 -0.70597,-0.43885 -1.1639,-1.12574 -0.43884,-0.66781 -0.43884,-1.58366 0,-0.64873 0.24804,-1.20206 0.24804,-0.53425 0.64873,-0.99217 0.40069,-0.45793 0.89677,-0.83953 0.49609,-0.38161 0.99218,-0.72506 -0.78229,-0.2862 -1.3547,-0.76321 -0.55333,-0.477 -0.55333,-1.20205 0,-0.32437 0.20988,-0.68689 0.22897,-0.36253 0.53425,-0.70598 0.30529,-0.34344 0.64873,-0.62964 0.34345,-0.28621 0.59149,-0.49609 -2.11791,-1.0685 -2.11791,-3.64434 z m 5.09443,8.35717 q -0.62965,0 -1.04941,0 -0.40069,0.0191 -0.66781,0.0763 -0.26713,0.0572 -0.47701,0.17172 -0.20988,0.11448 -0.43885,0.30529 -0.59148,0.49608 -0.87769,1.10665 -0.2862,0.62965 -0.2862,1.29746 0,0.78229 0.3816,1.31654 0.38161,0.53425 0.9731,0.85861 0.59149,0.34345 1.31654,0.49609 0.72505,0.15264 1.41194,0.15264 0.85861,0 1.62182,-0.1908 0.76321,-0.17172 1.33562,-0.57241 0.57241,-0.40068 0.89677,-1.03033 0.34345,-0.62965 0.34345,-1.50735 0,-0.80137 -0.34345,-1.33562 -0.34344,-0.53424 -0.99217,-0.80137 -0.55333,-0.24804 -1.22114,-0.30528 -0.66781,-0.0382 -1.5455,-0.0382 z m -0.13356,-4.97996 q 0.61057,0 1.04942,-0.2862 0.43884,-0.2862 0.70597,-0.74413 0.2862,-0.45793 0.41976,-1.03034 0.13357,-0.57241 0.13357,-1.12573 0,-0.68689 -0.15265,-1.37378 -0.13356,-0.70597 -0.45792,-1.2593 -0.30529,-0.55333 -0.82046,-0.89678 -0.49608,-0.34344 -1.24021,-0.34344 -0.62965,0 -1.0685,0.2862 -0.43885,0.26713 -0.72505,0.72505 -0.26712,0.45793 -0.40069,1.03034 -0.11448,0.55333 -0.11448,1.12574 0,0.64873 0.15264,1.33562 0.15265,0.68689 0.45793,1.25929 0.32437,0.57241 0.82045,0.93494 0.51517,0.36252 1.24022,0.36252 z"
         style="font-style:normal;font-variant:normal;font-weight:normal;font-stretch:normal;font-size:39.07641983px;line-height:1;font-family:'Arabic Typesetting';-inkscape-font-specification:'Arabic Typesetting, Normal';font-variant-ligatures:normal;font-variant-caps:normal;font-variant-numeric:normal;font-feature-settings:normal;text-align:start;writing-mode:lr-tb;text-anchor:start;fill:#004071;fill-opacity:1;stroke-width:0.97691053"
         id="path831"
         inkscape:connector-curvature="0" />
      <path
         d="m 198.42901,126.45673 q -0.61056,0 -1.46918,-0.0191 -0.85861,-0.0191 -1.77446,-0.0191 -0.74413,0 -1.45011,0.0191 -0.70597,0.0191 -1.24021,0.0191 l -0.0382,-0.61057 q 0.62964,-0.0572 0.99217,-0.15264 0.38161,-0.11448 0.59149,-0.36252 0.20988,-0.24805 0.26712,-0.66781 0.0763,-0.43885 0.0763,-1.1639 v -5.01811 q 0,-0.53425 -0.0572,-0.83954 -0.0572,-0.30528 -0.24804,-0.477 -0.17172,-0.17173 -0.53425,-0.26713 -0.34344,-0.0954 -0.91585,-0.1908 l -0.0572,-0.55333 q 0.59149,-0.11448 1.18297,-0.22896 0.61057,-0.13356 1.12574,-0.26713 0.53425,-0.13356 0.93494,-0.24804 0.41976,-0.11448 0.62964,-0.20988 l 0.19081,0.15264 q -0.0572,0.47701 -0.0954,1.01125 -0.0382,0.53425 -0.0572,1.0685 -0.0191,0.51517 -0.0382,0.99217 0,0.45793 0,0.80138 v 5.05627 q 0,0.45793 0.0573,0.74413 0.0572,0.26713 0.24804,0.41977 0.20988,0.15264 0.61057,0.20988 0.40068,0.0572 1.10665,0.0954 z m -4.4457,-15.83663 q 0,-0.62965 0.3816,-1.01126 0.38161,-0.40068 1.01126,-0.40068 0.66781,0 1.04941,0.40068 0.40069,0.38161 0.40069,1.01126 0,0.62965 -0.40069,1.03033 -0.3816,0.38161 -1.04941,0.38161 -0.62965,0 -1.01126,-0.38161 -0.3816,-0.40068 -0.3816,-1.03033 z"
         style="font-style:normal;font-variant:normal;font-weight:normal;font-stretch:normal;font-size:39.07641983px;line-height:1;font-family:'Arabic Typesetting';-inkscape-font-specification:'Arabic Typesetting, Normal';font-variant-ligatures:normal;font-variant-caps:normal;font-variant-numeric:normal;font-feature-settings:normal;text-align:start;writing-mode:lr-tb;text-anchor:start;fill:#004071;fill-opacity:1;stroke-width:0.97691053"
         id="path833"
         inkscape:connector-curvature="0" />
      <path
         d="m 209.62914,124.03354 q -0.32436,0.66781 -0.83953,1.18298 -0.51517,0.51516 -1.14482,0.87769 -0.61057,0.36252 -1.29746,0.55333 -0.68689,0.1908 -1.37378,0.1908 -1.14482,0 -2.09883,-0.43885 -0.95401,-0.45792 -1.6409,-1.20205 -0.68689,-0.74414 -1.0685,-1.71723 -0.38161,-0.99218 -0.38161,-2.07975 0,-1.31654 0.51517,-2.44228 0.53425,-1.12573 1.41194,-1.96527 0.89678,-0.83953 2.06067,-1.31654 1.1639,-0.477 2.46136,-0.477 0.62965,0 1.2593,0.11448 0.64873,0.11448 1.2593,0.43884 0.26712,0.13357 0.36252,0.36253 0.11448,0.20988 0.11448,0.41977 0,0.34344 -0.26712,0.72505 -0.26712,0.36252 -0.87769,0.66781 h -0.0954 q -0.70597,-0.72505 -1.3547,-1.0685 -0.64873,-0.34344 -1.50735,-0.34344 -0.80137,0 -1.41194,0.32436 -0.59149,0.32437 -0.99217,0.85861 -0.40069,0.53425 -0.61057,1.24022 -0.20988,0.68689 -0.20988,1.43102 0,0.93494 0.26712,1.79355 0.2862,0.85861 0.80137,1.50734 0.51517,0.64873 1.2593,1.04942 0.76321,0.3816 1.73631,0.3816 0.91585,0 1.75538,-0.3816 0.83953,-0.38161 1.3547,-1.18298 z"
         style="font-style:normal;font-variant:normal;font-weight:normal;font-stretch:normal;font-size:39.07641983px;line-height:1;font-family:'Arabic Typesetting';-inkscape-font-specification:'Arabic Typesetting, Normal';font-variant-ligatures:normal;font-variant-caps:normal;font-variant-numeric:normal;font-feature-settings:normal;text-align:start;writing-mode:lr-tb;text-anchor:start;fill:#004071;fill-opacity:1;stroke-width:0.97691053"
         id="path835"
         inkscape:connector-curvature="0" />
    </g>
  </g>
</svg>
