<?xml version="1.0" encoding="UTF-8" standalone="no"?>
<!-- Generator: Adobe Illustrator 22.0.1, SVG Export Plug-In . SVG Version: 6.00 Build 0)  -->

<svg
   xmlns:dc="http://purl.org/dc/elements/1.1/"
   xmlns:cc="http://creativecommons.org/ns#"
   xmlns:rdf="http://www.w3.org/1999/02/22-rdf-syntax-ns#"
   xmlns:svg="http://www.w3.org/2000/svg"
   xmlns="http://www.w3.org/2000/svg"
   xmlns:sodipodi="http://sodipodi.sourceforge.net/DTD/sodipodi-0.dtd"
   xmlns:inkscape="http://www.inkscape.org/namespaces/inkscape"
   version="1.1"
   id="svg8"
   inkscape:version="0.92.3 (2405546, 2018-03-11)"
   sodipodi:docname="logox.svg"
   x="0px"
   y="0px"
   viewBox="0 0 396.9 170.1"
   style="enable-background:new 0 0 396.9 170.1;"
   xml:space="preserve"><metadata
   id="metadata45"><rdf:RDF><cc:Work
       rdf:about=""><dc:format>image/svg+xml</dc:format><dc:type
         rdf:resource="http://purl.org/dc/dcmitype/StillImage" /></cc:Work></rdf:RDF></metadata><defs
   id="defs43" />
<style
   type="text/css"
   id="style2">
	.st0{fill:#004071;}
	.st1{fill:#FF6300;}
</style>
<sodipodi:namedview
   bordercolor="#666666"
   borderopacity="1.0"
   fit-margin-bottom="0"
   fit-margin-left="0"
   fit-margin-right="0"
   fit-margin-top="0"
   id="base"
   inkscape:current-layer="layer1_1_"
   inkscape:cx="138.18053"
   inkscape:cy="137.73226"
   inkscape:document-units="px"
   inkscape:pageopacity="0.0"
   inkscape:pageshadow="2"
   inkscape:window-height="1018"
   inkscape:window-maximized="1"
   inkscape:window-width="1920"
   inkscape:window-x="-8"
   inkscape:window-y="-8"
   inkscape:zoom="1.4"
   pagecolor="#ffffff"
   showgrid="false">
	</sodipodi:namedview>
<g
   id="layer2"
   transform="translate(-74.970545,-88.801726)"
   inkscape:groupmode="layer"
   inkscape:label="Layer 2">
	<rect
   id="rect4542"
   x="296.41379"
   y="197.20779"
   class="st0"
   width="50.06905"
   height="3.0270503"
   style="fill:#004071;stroke-width:0.81812167" />
	<rect
   id="rect4542-4"
   x="379.2077"
   y="197.20779"
   class="st0"
   width="37.224537"
   height="3.0270503"
   style="fill:#004071;stroke-width:0.81812167" />
</g>
<path
   class="st1"
   d="m 54.849569,94.663029 c 1.14537,-4.172421 7.772156,-3.681548 8.099405,0 0,0 -0.08181,0.654497 -0.08181,0.981746 0,0.327249 0,0.899934 0,1.554431 0,4.090604 0.736309,7.117664 2.29074,8.917524 1.554432,1.88168 4.008797,2.78162 7.444908,2.78162 2.127116,0 3.926984,-0.40906 5.317791,-1.14537 1.390807,-0.73631 2.536177,-1.9635 3.354299,-3.51793 0.327248,-0.73631 0.654497,-1.79986 0.818121,-3.19067 0.163625,-1.390809 0.245437,-3.681549 0.245437,-6.872224 V 56.129497 c 0,-1.963492 1.636243,-3.599735 3.599735,-3.599735 h 1.308995 c 1.963492,0 3.599736,1.636243 3.599736,3.599735 v 41.396958 c 0,6.381345 -1.472619,11.208265 -4.417858,14.235315 -2.945238,3.02705 -7.444907,4.6633 -13.58082,4.6633 -6.0541,0 -10.55377,-1.55444 -13.58082,-4.74511 -3.02705,-3.19067 -4.499669,-7.93578 -4.499669,-14.398941 0,-0.73631 0,-1.227183 0,-1.636244 0,-0.327249 0.08181,-0.981746 0.08181,-0.981746 z"
   id="path8"
   inkscape:connector-curvature="0"
   style="fill:#ff6300;stroke-width:0.81812167" />
<path
   class="st1"
   d="M 103.446,110.78003 V 56.62037 c 0,-2.208928 1.79987,-4.008796 4.00879,-4.008796 h 3.02705 c 1.39081,0 2.61799,0.654497 3.3543,1.88168 l 27.89795,43.36045 c 0.6545,0.981746 1.22719,1.88168 1.71806,2.781616 0.49087,0.89993 0.81812,1.71805 1.14537,2.45436 V 56.62037 c 0,-2.208928 1.79987,-4.008796 4.0088,-4.008796 h 0.0818 c 2.20893,0 4.00879,1.799868 4.00879,4.008796 v 54.15966 c 0,2.20893 -1.79986,4.00879 -4.00879,4.00879 h -3.02705 c -1.39081,0 -2.61799,-0.65449 -3.3543,-1.79986 L 113.83614,68.974008 c -0.49087,-0.73631 -0.89993,-1.472619 -1.22718,-2.208929 -0.40906,-0.736309 -0.73631,-1.554431 -1.06356,-2.372553 v 46.387504 c 0,2.20893 -1.79987,4.00879 -4.00879,4.00879 v 0 c -2.29074,0 -4.09061,-1.79986 -4.09061,-4.00879 z"
   id="path10"
   inkscape:connector-curvature="0"
   style="fill:#ff6300;stroke-width:0.81812167" />
<path
   class="st1"
   d="m 167.58674,94.33578 v 0 c 1.96349,0 3.59973,1.390807 3.92698,3.272487 0.57269,3.027053 1.96349,5.481413 4.17242,7.526723 2.94524,2.6998 6.79041,4.00879 11.69914,4.00879 4.82692,0 8.59028,-0.98174 11.37189,-3.02705 2.78162,-2.0453 4.17243,-4.82692 4.17243,-8.263026 0,-4.745106 -5.23598,-8.344842 -15.62613,-10.881019 -0.6545,-0.163624 -1.06356,-0.245436 -1.47262,-0.327248 -8.42665,-1.963493 -13.98988,-4.254233 -16.77149,-6.708598 -2.6998,-2.454365 -4.09061,-5.972289 -4.09061,-10.471958 0,-5.563228 2.0453,-9.981085 6.0541,-13.335384 4.09061,-3.354299 9.4084,-5.072354 16.19881,-5.072354 6.87222,0 12.27182,1.799868 16.19881,5.317791 2.86342,2.536177 4.66329,5.808664 5.48141,9.653836 0.49088,2.536177 -1.3908,4.90873 -3.92698,4.90873 h -0.16362 c -1.88168,0 -3.51793,-1.227183 -3.92699,-3.02705 -0.6545,-2.699802 -1.88168,-4.90873 -3.76336,-6.544974 -2.53618,-2.208928 -6.0541,-3.354299 -10.47196,-3.354299 -4.17242,0 -7.4449,0.899934 -9.89927,2.699802 -2.45436,1.799868 -3.68155,4.254233 -3.68155,7.281283 0,4.826918 5.15417,8.426653 15.38069,10.799206 1.55443,0.327249 2.6998,0.654498 3.51792,0.818122 l 0.89994,0.245436 c 6.7086,1.636244 11.12645,3.354299 13.33538,5.235979 1.63625,1.390807 2.94524,3.108863 3.76336,5.154167 0.89994,2.045304 1.309,4.254233 1.309,6.708598 0,5.97229 -2.12712,10.79921 -6.46316,14.31713 -4.25424,3.51792 -10.0629,5.31779 -17.426,5.31779 -7.52672,0 -13.41719,-1.88168 -17.67143,-5.72685 -3.19067,-2.94524 -5.31779,-6.79041 -6.21772,-11.617329 -0.40906,-2.61799 1.55443,-4.908731 4.09061,-4.908731 z"
   id="path12"
   inkscape:connector-curvature="0"
   style="fill:#ff6300;stroke-width:0.81812167" />
<path
   class="st0"
   d="m 237.9452,56.947619 c -0.0818,0.73631 -0.24543,1.554431 -0.32724,2.536177 -0.0818,0.981746 -0.16363,1.88168 -0.16363,2.863426 -0.0818,0.981746 -0.0818,1.88168 -0.0818,2.699802 0,0.818122 0,1.554431 0,2.045304 v 30.434127 c 0,0.654497 0.0818,1.227183 0.16362,1.636243 0.0818,0.409061 0.24544,0.73631 0.57269,0.981742 0.32725,0.24544 0.73631,0.40907 1.39081,0.49088 0.57268,0.0818 1.3908,0.16362 2.45436,0.24543 l -0.0818,1.55444 c -0.89994,0 -1.96349,0 -3.19068,-0.0818 -1.22718,0 -2.53617,-0.0818 -3.92698,-0.0818 -1.06356,0 -2.20893,0 -3.27249,0.0818 -1.06356,0 -1.96349,0.0818 -2.78161,0.0818 l -0.16363,-1.39081 c 0.98175,-0.0818 1.71806,-0.16363 2.29075,-0.32725 0.57268,-0.16362 0.98174,-0.40906 1.30899,-0.818122 0.32725,-0.327249 0.49087,-0.899934 0.57269,-1.472619 0.0818,-0.654497 0.16362,-1.472619 0.16362,-2.536177 V 64.14709 c 0,-0.818122 -0.0818,-1.472619 -0.16362,-1.88168 -0.0818,-0.490873 -0.24544,-0.818122 -0.57269,-1.063558 -0.32725,-0.245437 -0.73631,-0.490873 -1.30899,-0.572685 -0.57269,-0.163625 -1.39081,-0.327249 -2.37256,-0.490873 l -0.16362,-1.227183 c 0.81812,-0.163624 1.71805,-0.327249 2.61799,-0.572685 0.89993,-0.163624 1.79987,-0.409061 2.61799,-0.572685 0.81812,-0.163625 1.55443,-0.409061 2.29074,-0.572685 0.65449,-0.163625 1.22718,-0.409061 1.63624,-0.572686 z"
   id="path14"
   inkscape:connector-curvature="0"
   style="fill:#004071;stroke-width:0.81812167" />
<path
   class="st0"
   d="m 244.98105,90.490608 c 0,-1.799867 0.32725,-3.517923 0.98175,-5.072354 0.65449,-1.636243 1.55443,-3.02705 2.6998,-4.172421 1.14537,-1.14537 2.45436,-2.127116 4.00879,-2.781613 1.55444,-0.654498 3.19068,-1.063559 4.99055,-1.063559 1.88168,0 3.68154,0.327249 5.23598,0.981746 1.55443,0.654498 2.94523,1.554432 4.00879,2.699802 1.14537,1.14537 1.96349,2.454365 2.53618,4.008796 0.57268,1.554432 0.89993,3.190675 0.89993,4.90873 0,1.799868 -0.32725,3.517924 -0.98174,5.154167 -0.6545,1.554431 -1.55443,2.945238 -2.6998,4.172421 -1.14538,1.145367 -2.45437,2.127117 -4.09061,2.781617 -1.55443,0.65449 -3.19068,1.06355 -4.99055,1.06355 -1.88168,0 -3.68154,-0.32724 -5.23597,-0.98174 -1.55444,-0.6545 -2.86343,-1.55443 -4.0088,-2.699803 -1.14537,-1.14537 -1.96349,-2.454365 -2.53618,-4.008796 -0.49087,-1.636244 -0.81812,-3.272487 -0.81812,-4.990543 z m 13.25357,10.553772 c 1.22718,0 2.29074,-0.32725 3.19068,-0.89994 0.89993,-0.572681 1.63624,-1.390802 2.20893,-2.290736 0.57268,-0.899934 0.98174,-1.963492 1.22718,-3.108863 0.24543,-1.14537 0.40906,-2.29074 0.40906,-3.436111 0,-1.390807 -0.16363,-2.699801 -0.40906,-4.17242 -0.32725,-1.390807 -0.73631,-2.699802 -1.39081,-3.845172 -0.6545,-1.145371 -1.47262,-2.045305 -2.53618,-2.781614 -1.06355,-0.73631 -2.29074,-1.063558 -3.76336,-1.063558 -1.22718,0 -2.37255,0.327248 -3.19067,0.899933 -0.81812,0.572686 -1.63624,1.308995 -2.20893,2.290741 -0.57268,0.899934 -0.98175,1.963492 -1.22718,3.108863 -0.24544,1.14537 -0.40906,2.29074 -0.40906,3.436111 0,1.308994 0.16362,2.617989 0.49087,4.090608 0.32725,1.390807 0.81812,2.699802 1.47262,3.845172 0.6545,1.145371 1.47262,2.127117 2.53618,2.863426 0.89993,0.6545 2.20893,1.06356 3.59973,1.06356 z"
   id="path16"
   inkscape:connector-curvature="0"
   style="fill:#004071;stroke-width:0.81812167" />
<path
   class="st0"
   d="m 275.5788,87.381746 c 0,-1.390807 0.32725,-2.699802 0.89994,-3.926984 0.57268,-1.227183 1.3908,-2.290741 2.29074,-3.190675 0.98174,-0.899934 2.12711,-1.636243 3.3543,-2.127116 1.22718,-0.490873 2.61798,-0.73631 4.00879,-0.73631 2.29074,0 4.17242,0.490873 5.80867,1.472619 0.32724,0.163625 0.57268,0.327249 0.89993,0.409061 0.24544,0.08181 0.57268,0.08181 0.98175,0.08181 0.32724,0 0.57268,-0.08181 0.65449,-0.08181 l 6.46316,-0.490873 0.32725,0.327249 -0.24543,2.454365 h -5.97229 c 1.14537,1.472619 1.71805,3.108862 1.71805,4.90873 0,1.636244 -0.32725,3.108863 -0.98174,4.417857 -0.6545,1.227183 -1.55443,2.290741 -2.53618,3.190675 -1.06356,0.899934 -2.20893,1.472619 -3.51792,1.963492 -1.309,0.409061 -2.53618,0.654497 -3.76336,0.654497 -1.06356,0 -2.29074,-0.163624 -3.51793,-0.409061 -0.65449,0.327249 -1.22718,0.73631 -1.63624,1.390807 -0.40906,0.572686 -0.6545,1.145371 -0.6545,1.718056 0,0.409061 0.16363,0.736305 0.40906,1.063555 0.32725,0.32725 0.6545,0.57269 1.06356,0.73631 0.40906,0.16363 0.89994,0.32725 1.39081,0.40906 0.49087,0.0818 0.89993,0.16363 1.30899,0.16363 1.06356,0 2.20893,0 3.43612,-0.0818 1.22718,-0.0818 2.29074,-0.0818 3.35429,-0.0818 1.14537,0 2.29074,0.0818 3.3543,0.32725 1.14537,0.24544 2.12712,0.57269 3.02705,1.14537 0.89994,0.57269 1.63625,1.309 2.20893,2.29074 0.57269,0.98175 0.81812,2.20893 0.81812,3.59974 0,1.79987 -0.40906,3.43611 -1.14537,4.99054 -0.81812,1.55443 -1.88168,2.94524 -3.27248,4.09061 -1.39081,1.14537 -3.10887,2.0453 -5.07236,2.6998 -1.96349,0.6545 -4.09061,0.98175 -6.46316,0.98175 -1.22718,0 -2.45436,-0.16363 -3.76336,-0.49088 -1.30899,-0.32724 -2.45436,-0.81812 -3.51792,-1.47261 -1.06356,-0.6545 -1.88168,-1.47262 -2.53618,-2.45437 -0.6545,-0.98175 -0.98175,-2.20893 -0.98175,-3.51792 0,-0.98175 0.16363,-1.79987 0.57269,-2.61799 0.32725,-0.81812 0.81812,-1.55443 1.47262,-2.20893 0.57268,-0.6545 1.22718,-1.309 1.96349,-1.88168 0.73631,-0.57269 1.47262,-1.06356 2.20893,-1.63624 -1.14537,-0.40907 -2.12712,-0.98175 -2.94524,-1.71806 -0.81812,-0.73631 -1.22718,-1.55443 -1.22718,-2.6998 0,-0.49087 0.16362,-0.98175 0.49087,-1.554433 0.32725,-0.572685 0.73631,-1.063558 1.14537,-1.554431 0.49087,-0.490873 0.89994,-0.981746 1.47262,-1.390807 0.49087,-0.409061 0.98175,-0.818122 1.309,-1.063558 -3.10887,-1.636244 -4.6633,-4.336045 -4.6633,-8.099405 z m 11.29008,18.489554 c -0.89993,0 -1.71805,0 -2.29074,0 -0.57268,0 -1.14537,0.0818 -1.47262,0.16362 -0.40906,0.0818 -0.73631,0.24544 -1.06356,0.40906 -0.32725,0.16363 -0.65449,0.40906 -0.98174,0.6545 -0.89994,0.73631 -1.55443,1.55443 -1.96349,2.45436 -0.40907,0.89994 -0.6545,1.88168 -0.6545,2.86343 0,1.14537 0.24543,2.12712 0.81812,2.94524 0.57268,0.81812 1.30899,1.3908 2.12712,1.88168 0.89993,0.49087 1.88168,0.81812 2.94523,1.06356 1.06356,0.24543 2.12712,0.32724 3.10887,0.32724 1.22718,0 2.45436,-0.16362 3.59973,-0.40906 1.14537,-0.24543 2.12712,-0.73631 2.94524,-1.30899 0.81812,-0.57269 1.55443,-1.39081 2.0453,-2.29074 0.49088,-0.89994 0.73631,-2.04531 0.73631,-3.3543 0,-1.14537 -0.24543,-2.20893 -0.73631,-2.94524 -0.49087,-0.81812 -1.22718,-1.39081 -2.20892,-1.79987 -0.81813,-0.32725 -1.71806,-0.57268 -2.69981,-0.65449 -0.98174,-0.0818 -2.12711,-0.0818 -3.43611,-0.0818 h -0.81812 z m -0.32725,-11.044647 c 0.89994,0 1.63625,-0.245436 2.29074,-0.654497 0.6545,-0.409061 1.14537,-0.981746 1.55443,-1.636243 0.40907,-0.654498 0.73631,-1.472619 0.89994,-2.290741 0.16362,-0.818122 0.32725,-1.636243 0.32725,-2.454365 0,-0.981746 -0.0818,-2.045304 -0.32725,-3.02705 -0.24544,-1.063559 -0.57269,-1.963492 -0.98175,-2.781614 -0.49087,-0.818122 -1.06356,-1.472619 -1.79987,-1.963492 -0.7363,-0.490873 -1.63624,-0.73631 -2.78161,-0.73631 -0.89993,0 -1.71805,0.245437 -2.37255,0.572685 -0.6545,0.409061 -1.14537,0.981746 -1.55443,1.636244 -0.40906,0.654497 -0.73631,1.390807 -0.89994,2.290741 -0.16362,0.818121 -0.24543,1.636243 -0.24543,2.536177 0,0.981746 0.0818,1.963492 0.32724,2.945238 0.24544,0.981746 0.57269,1.963492 1.06356,2.781614 0.49088,0.818121 1.06356,1.554431 1.79987,2.045304 0.73631,0.490873 1.63624,0.736309 2.6998,0.736309 z"
   id="path18"
   inkscape:connector-curvature="0"
   style="fill:#004071;stroke-width:0.81812167" />
<path
   class="st0"
   d="m 316.5667,102.27156 c -0.89994,0 -1.96349,0 -3.27249,-0.0818 -1.22718,0 -2.53618,-0.0818 -3.92698,-0.0818 -1.06356,0 -2.20893,0 -3.19068,0.0818 -1.06356,0 -1.96349,0.0818 -2.78161,0.0818 l -0.0818,-1.39081 c 0.89993,-0.0818 1.63624,-0.16362 2.20893,-0.32724 0.57268,-0.16363 0.98174,-0.40907 1.30899,-0.818126 0.32725,-0.327249 0.49087,-0.899934 0.57269,-1.472619 0.0818,-0.654498 0.16362,-1.47262 0.16362,-2.536178 V 84.600132 c 0,-0.818121 -0.0818,-1.390807 -0.16362,-1.88168 -0.0818,-0.490873 -0.24544,-0.818121 -0.49088,-1.063558 -0.24543,-0.245436 -0.65449,-0.490873 -1.14537,-0.572685 -0.49087,-0.163624 -1.22718,-0.245437 -2.0453,-0.409061 l -0.16363,-1.227182 c 0.89994,-0.163625 1.71806,-0.327249 2.61799,-0.490873 0.89994,-0.163625 1.71806,-0.409061 2.45437,-0.572686 0.73631,-0.163624 1.47262,-0.40906 2.0453,-0.572685 0.57269,-0.163624 1.06356,-0.327248 1.39081,-0.490873 l 0.40906,0.327249 c -0.0818,0.736309 -0.16362,1.472619 -0.24544,2.208928 -0.0818,0.818122 -0.0818,1.554432 -0.16362,2.372553 0,0.73631 -0.0818,1.472619 -0.0818,2.208929 0,0.654497 0,1.308995 0,1.799868 v 11.208267 c 0,0.654497 0.0818,1.227182 0.16362,1.636243 0.0818,0.409061 0.24544,0.73631 0.57269,0.981744 0.32725,0.24544 0.73631,0.40906 1.30899,0.49088 0.57269,0.0818 1.39081,0.16362 2.45437,0.24543 z"
   id="path20"
   inkscape:connector-curvature="0"
   style="fill:#004071;stroke-width:0.81812167" />
<path
   class="st0"
   d="m 306.01293,62.756283 c 0,-1.14537 0.32725,-2.127116 1.06356,-2.863426 0.73631,-0.736309 1.63624,-1.063558 2.78161,-1.063558 1.22718,0 2.20893,0.327249 2.94524,1.063558 0.73631,0.73631 1.06356,1.636244 1.06356,2.863426 0,1.14537 -0.32725,2.127116 -1.06356,2.863426 -0.73631,0.73631 -1.71806,1.063558 -2.94524,1.063558 -1.14537,0 -2.12712,-0.327248 -2.78161,-1.063558 -0.73631,-0.818122 -1.06356,-1.718056 -1.06356,-2.863426 z"
   id="path22"
   inkscape:connector-curvature="0"
   style="fill:#004071;stroke-width:0.81812167" />
<path
   class="st0"
   d="m 341.27397,96.95377 c -0.49087,0.981746 -1.06355,1.88168 -1.88168,2.617989 -0.73631,0.736311 -1.63624,1.390811 -2.53617,1.963491 -0.89994,0.57269 -1.88168,0.98175 -2.86343,1.22718 -0.98175,0.24544 -2.0453,0.40906 -3.02705,0.40906 -1.71806,0 -3.27249,-0.32724 -4.66329,-0.98174 -1.39081,-0.6545 -2.61799,-1.55443 -3.59974,-2.617991 -0.98174,-1.063558 -1.79987,-2.372553 -2.37255,-3.845172 -0.57269,-1.472619 -0.81812,-2.945238 -0.81812,-4.581481 0,-1.963492 0.40906,-3.76336 1.14537,-5.399603 0.73631,-1.636244 1.79986,-3.108863 3.10886,-4.336045 1.30899,-1.227183 2.86343,-2.208929 4.49967,-2.945238 1.71805,-0.73631 3.51792,-1.063559 5.48141,-1.063559 0.89994,0 1.88168,0.08181 2.78162,0.245437 0.98174,0.163624 1.88168,0.490873 2.78161,0.981746 0.40906,0.163624 0.6545,0.490873 0.81812,0.818122 0.16363,0.327248 0.24544,0.654497 0.24544,0.981746 0,0.490873 -0.16362,1.063558 -0.57269,1.554431 -0.40906,0.572685 -1.06355,1.063558 -1.96349,1.472619 h -0.24543 c -1.06356,-1.063558 -2.04531,-1.88168 -3.02705,-2.372553 -0.98175,-0.490873 -2.04531,-0.73631 -3.3543,-0.73631 -1.14537,0 -2.20893,0.245437 -3.10887,0.73631 -0.89993,0.490873 -1.63624,1.14537 -2.20892,1.88168 -0.57269,0.818122 -1.06356,1.718055 -1.39081,2.699801 -0.32725,1.063559 -0.49087,2.127117 -0.49087,3.190675 0,1.390807 0.16362,2.699802 0.57268,4.008796 0.40906,1.227183 0.98175,2.372553 1.71806,3.354299 0.73631,0.981746 1.71805,1.718056 2.78161,2.290741 1.14537,0.572685 2.37255,0.899934 3.84517,0.899934 1.39081,0 2.61799,-0.245437 3.84517,-0.818122 1.22719,-0.572685 2.20893,-1.472619 3.02705,-2.617989 z"
   id="path24"
   inkscape:connector-curvature="0"
   style="fill:#004071;stroke-width:0.81812167" />
<sodipodi:namedview
   bordercolor="#666666"
   borderopacity="1.0"
   fit-margin-bottom="0"
   fit-margin-left="0"
   fit-margin-right="0"
   fit-margin-top="0"
   id="namedview26"
   inkscape:current-layer="layer1"
   inkscape:cx="-523.08597"
   inkscape:cy="1123.1605"
   inkscape:document-units="px"
   inkscape:pageopacity="0.0"
   inkscape:pageshadow="2"
   inkscape:window-height="1018"
   inkscape:window-maximized="1"
   inkscape:window-width="1920"
   inkscape:window-x="-8"
   inkscape:window-y="-8"
   inkscape:zoom="0.175"
   pagecolor="#ffffff"
   showgrid="false">
	</sodipodi:namedview>
<g
   id="layer2_1_"
   transform="translate(-74.970545,-88.801726)"
   inkscape:groupmode="layer"
   inkscape:label="Layer 2">
	
	
</g>
<g
   id="layer1_1_"
   transform="translate(-74.970545,-88.801726)"
   inkscape:groupmode="layer"
   inkscape:label="Layer 1">
	
	
</g>
<path
   class="st0"
   d="m 311.73978,69.955754 h -3.51792 c -0.16363,0 -0.32725,-0.163624 -0.32725,-0.327249 v -0.163624 c 0,-0.163624 0.16362,-0.327249 0.32725,-0.327249 h 3.51792 c 0.16362,0 0.32725,0.163625 0.32725,0.327249 v 0.163624 c 0,0.163625 -0.16363,0.327249 -0.32725,0.327249 z"
   id="path36"
   inkscape:connector-curvature="0"
   style="fill:#004071;stroke-width:0.81812167" />
<path
   class="st0"
   d="m 311.73978,71.182937 h -3.51792 c -0.16363,0 -0.32725,-0.163625 -0.32725,-0.327249 v -0.163625 c 0,-0.163624 0.16362,-0.327248 0.32725,-0.327248 h 3.51792 c 0.16362,0 0.32725,0.163624 0.32725,0.327248 v 0.163625 c 0,0.163624 -0.16363,0.327249 -0.32725,0.327249 z"
   id="path38"
   inkscape:connector-curvature="0"
   style="fill:#004071;stroke-width:0.81812167" />
<path
   class="st0"
   d="m 309.93991,66.519643 -3.3543,-1.554431 c 0,0 1.39081,1.472619 1.39081,3.436111 h 3.92698 c 0,-1.88168 1.39081,-3.436111 1.39081,-3.436111 z"
   id="path40"
   inkscape:connector-curvature="0"
   style="fill:#004071;stroke-width:0.81812167" />
</svg>