<?xml version="1.0" encoding="utf-8"?>
<!-- Generator: Adobe Illustrator 22.0.1, SVG Export Plug-In . SVG Version: 6.00 Build 0)  -->
<svg version="1.1"
	 id="svg8" inkscape:version="0.92.3 (2405546, 2018-03-11)" sodipodi:docname="logo.svg" xmlns:cc="http://creativecommons.org/ns#" xmlns:dc="http://purl.org/dc/elements/1.1/" xmlns:inkscape="http://www.inkscape.org/namespaces/inkscape" xmlns:rdf="http://www.w3.org/1999/02/22-rdf-syntax-ns#" xmlns:sodipodi="http://sodipodi.sourceforge.net/DTD/sodipodi-0.dtd" xmlns:svg="http://www.w3.org/2000/svg"
	 xmlns="http://www.w3.org/2000/svg" xmlns:xlink="http://www.w3.org/1999/xlink" x="0px" y="0px" viewBox="0 0 396.9 170.1"
	 style="enable-background:new 0 0 396.9 170.1;" xml:space="preserve">
<style type="text/css">
	.st0{fill:#004071;}
	.st1{fill:#FF6300;}
	.st2{enable-background:new    ;}
</style>
<sodipodi:namedview  bordercolor="#666666" borderopacity="1.0" fit-margin-bottom="0" fit-margin-left="0" fit-margin-right="0" fit-margin-top="0" id="base" inkscape:current-layer="layer1" inkscape:cx="-523.08597" inkscape:cy="1123.1605" inkscape:document-units="px" inkscape:pageopacity="0.0" inkscape:pageshadow="2" inkscape:window-height="1018" inkscape:window-maximized="1" inkscape:window-width="1920" inkscape:window-x="-8" inkscape:window-y="-8" inkscape:zoom="0.175" pagecolor="#ffffff" showgrid="false">
	</sodipodi:namedview>
<g id="layer2" transform="translate(-74.970545,-88.801726)" inkscape:groupmode="layer" inkscape:label="Layer 2">
	<rect id="rect4542" x="303" y="203.4" class="st0" width="64.1" height="3.8"/>
	<rect id="rect4542-4" x="408.9" y="203.4" class="st0" width="47.7" height="3.8"/>
</g>
<path class="st1" d="M14.7,97c1.4-5.4,10-4.7,10.4,0c0,0-0.1,0.8-0.1,1.3c0,0.5,0,1.1,0,2c0,5.3,1,9.1,3,11.4c2,2.4,5.2,3.5,9.6,3.5
	c2.7,0,5-0.5,6.8-1.5c1.8-1,3.2-2.5,4.3-4.5c0.5-1,0.8-2.3,1-4.1c0.2-1.7,0.3-4.7,0.3-8.8V47.7c0-2.5,2.1-4.6,4.6-4.6h1.7
	c2.5,0,4.6,2.1,4.6,4.6v53c0,8.2-1.9,14.3-5.6,18.3s-9.6,5.9-17.4,5.9c-7.7,0-13.5-2-17.4-6.1c-3.9-4.1-5.8-10.2-5.8-18.4
	c0-0.9,0-1.6,0-2.1C14.6,97.8,14.7,97,14.7,97z"/>
<path class="st1" d="M76.9,117.6V48.2c0-2.8,2.3-5.1,5.1-5.1H86c1.7,0,3.4,0.9,4.3,2.4L126,101c0.8,1.3,1.5,2.5,2.2,3.6
	c0.6,1.1,1.1,2.2,1.5,3.1V48.2c0-2.8,2.3-5.1,5.1-5.1h0.1c2.8,0,5.1,2.3,5.1,5.1v69.4c0,2.8-2.3,5.1-5.1,5.1H131
	c-1.7,0-3.4-0.9-4.3-2.3L90.2,64.1c-0.6-0.9-1.1-1.8-1.6-2.8c-0.5-1-0.9-2-1.4-3.1v59.4c0,2.8-2.3,5.1-5.1,5.1h0
	C79.2,122.8,76.9,120.5,76.9,117.6z"/>
<path class="st1" d="M159,96.5L159,96.5c2.5,0,4.6,1.8,5.1,4.2c0.8,3.9,2.5,7.1,5.3,9.6c3.7,3.4,8.7,5.1,15,5.1
	c6.2,0,11-1.3,14.6-3.9c3.6-2.6,5.3-6.1,5.3-10.6c0-6.1-6.7-10.7-20-13.9c-0.8-0.2-1.4-0.3-1.8-0.4c-10.8-2.6-18-5.4-21.4-8.6
	c-3.5-3.2-5.2-7.6-5.2-13.4c0-7.1,2.6-12.8,7.8-17.1c5.2-4.3,12.1-6.5,20.7-6.5c8.8,0,15.7,2.3,20.8,6.8c3.6,3.3,6,7.4,7,12.4
	c0.7,3.2-1.8,6.2-5,6.3l-0.2,0c-2.4,0-4.5-1.6-5-3.9c-0.8-3.5-2.4-6.3-4.9-8.4c-3.3-2.8-7.7-4.3-13.4-4.3c-5.3,0-9.5,1.2-12.7,3.5
	c-3.2,2.3-4.8,5.4-4.8,9.3c0,6.2,6.6,10.8,19.7,13.8c1.9,0.5,3.4,0.8,4.5,1.1l1.1,0.3c8.6,2.1,14.3,4.3,17.1,6.7
	c2.1,1.8,3.8,4,4.9,6.6s1.7,5.5,1.7,8.6c0,7.7-2.8,13.8-8.2,18.3c-5.5,4.5-12.9,6.8-22.3,6.8c-9.7,0-17.2-2.4-22.6-7.3
	c-4.1-3.7-6.8-8.7-8-14.9C153.3,99.5,155.8,96.5,159,96.5z"/>
<g class="st2">
	<path class="st0" d="M249.1,48.7c-0.1,0.9-0.3,2-0.4,3.2c-0.1,1.2-0.2,2.4-0.2,3.7c-0.1,1.2-0.1,2.4-0.1,3.5c0,1.1,0,1.9,0,2.6
		v38.9c0,0.9,0.1,1.6,0.2,2.1c0.1,0.5,0.4,0.9,0.8,1.2c0.4,0.3,1,0.5,1.7,0.6s1.8,0.2,3.1,0.3l-0.1,2c-1.2,0-2.5,0-4.1-0.1
		c-1.6,0-3.3-0.1-5-0.1c-1.4,0-2.8,0-4.2,0.1c-1.4,0-2.6,0.1-3.6,0.1L237,105c1.2-0.1,2.2-0.3,2.9-0.5c0.7-0.2,1.3-0.5,1.7-1
		c0.4-0.5,0.7-1.1,0.8-1.9c0.1-0.8,0.2-1.9,0.2-3.3V58c0-1-0.1-1.9-0.2-2.5c-0.1-0.6-0.4-1.1-0.8-1.4c-0.4-0.3-1-0.6-1.7-0.8
		c-0.7-0.2-1.7-0.4-3-0.6l-0.2-1.6c1.1-0.2,2.2-0.5,3.4-0.7c1.2-0.3,2.3-0.5,3.3-0.8c1.1-0.3,2-0.5,2.9-0.8c0.9-0.3,1.6-0.5,2.1-0.7
		L249.1,48.7z"/>
	<path class="st0" d="M258.1,91.6c0-2.3,0.4-4.5,1.3-6.5c0.8-2.1,2-3.8,3.5-5.4c1.5-1.5,3.2-2.7,5.2-3.6c2-0.9,4.1-1.3,6.4-1.3
		c2.5,0,4.7,0.4,6.7,1.3c2,0.8,3.7,2,5.2,3.5c1.4,1.5,2.5,3.2,3.3,5.1c0.8,2,1.2,4.1,1.2,6.3c0,2.3-0.4,4.5-1.3,6.6
		c-0.8,2-2,3.8-3.5,5.3c-1.5,1.5-3.2,2.7-5.2,3.6c-2,0.9-4.1,1.3-6.4,1.3c-2.5,0-4.7-0.4-6.7-1.3c-2-0.8-3.7-2-5.1-3.5
		c-1.4-1.5-2.5-3.2-3.3-5.1C258.5,96,258.1,93.9,258.1,91.6z M275.1,105.2c1.6,0,2.9-0.4,4.1-1.1c1.1-0.8,2.1-1.7,2.8-2.9
		c0.7-1.2,1.3-2.5,1.6-4s0.5-3,0.5-4.4c0-1.7-0.2-3.5-0.6-5.3s-1-3.4-1.8-4.9c-0.8-1.5-1.9-2.7-3.2-3.6c-1.3-0.9-2.9-1.4-4.8-1.4
		c-1.6,0-3,0.4-4.1,1.1s-2.1,1.7-2.8,2.9c-0.7,1.2-1.3,2.5-1.6,4c-0.3,1.5-0.5,3-0.5,4.4c0,1.7,0.2,3.4,0.6,5.2
		c0.4,1.8,1,3.4,1.8,4.9c0.8,1.5,1.9,2.7,3.2,3.7C271.7,104.7,273.3,105.2,275.1,105.2z"/>
	<path class="st0" d="M297.3,87.6c0-1.8,0.4-3.5,1.1-5.1c0.7-1.6,1.7-2.9,3-4.1s2.7-2.1,4.3-2.7c1.6-0.6,3.3-1,5.1-1
		c2.9,0,5.4,0.6,7.5,1.8c0.4,0.3,0.8,0.4,1.1,0.5s0.7,0.1,1.2,0.1c0.4,0,0.7-0.1,0.9-0.1l8.3-0.6l0.4,0.4l-0.3,3.1h-7.6
		c1.5,1.9,2.2,4,2.2,6.3c0,2.1-0.4,4-1.3,5.6c-0.8,1.6-1.9,3-3.3,4.1c-1.4,1.1-2.8,1.9-4.5,2.5c-1.6,0.6-3.3,0.8-4.8,0.8
		c-1.4,0-2.9-0.2-4.5-0.5c-0.8,0.4-1.5,1-2.1,1.8c-0.6,0.8-0.8,1.5-0.8,2.2c0,0.5,0.2,0.9,0.6,1.3c0.4,0.4,0.8,0.7,1.4,0.9
		c0.6,0.3,1.2,0.4,1.8,0.5c0.6,0.1,1.2,0.2,1.7,0.2c1.4,0,2.9,0,4.4-0.1c1.5-0.1,3-0.1,4.3-0.1c1.4,0,2.9,0.1,4.3,0.4
		c1.4,0.3,2.7,0.8,3.9,1.5s2.1,1.7,2.8,2.9c0.7,1.2,1.1,2.8,1.1,4.7c0,2.3-0.5,4.4-1.5,6.4c-1,2-2.4,3.7-4.2,5.2
		c-1.8,1.5-4,2.6-6.5,3.5c-2.5,0.8-5.3,1.3-8.2,1.3c-1.6,0-3.1-0.2-4.8-0.6c-1.6-0.4-3.1-1-4.5-1.9c-1.3-0.8-2.4-1.9-3.3-3.2
		c-0.8-1.3-1.3-2.8-1.3-4.5c0-1.2,0.2-2.4,0.7-3.4c0.5-1,1.1-2,1.8-2.8c0.8-0.9,1.6-1.7,2.5-2.4c0.9-0.7,1.9-1.4,2.8-2.1
		c-1.5-0.5-2.8-1.3-3.8-2.2c-1.1-0.9-1.6-2-1.6-3.4c0-0.6,0.2-1.3,0.6-1.9c0.4-0.7,0.9-1.4,1.5-2c0.6-0.6,1.2-1.2,1.8-1.8
		c0.6-0.5,1.2-1,1.7-1.4C299.3,96,297.3,92.5,297.3,87.6z M311.7,111.3c-1.2,0-2.2,0-2.9,0c-0.8,0-1.4,0.1-1.9,0.2
		c-0.5,0.1-1,0.3-1.4,0.5c-0.4,0.2-0.8,0.5-1.2,0.9c-1.1,0.9-1.9,2-2.5,3.2c-0.5,1.2-0.8,2.4-0.8,3.7c0,1.5,0.4,2.7,1.1,3.7
		c0.7,1,1.6,1.8,2.8,2.5c1.1,0.6,2.4,1.1,3.7,1.4c1.4,0.3,2.7,0.4,4,0.4c1.6,0,3.2-0.2,4.6-0.5c1.4-0.3,2.7-0.9,3.8-1.6
		c1.1-0.8,1.9-1.7,2.6-2.9c0.6-1.2,0.9-2.6,0.9-4.3c0-1.5-0.3-2.8-1-3.8c-0.6-1-1.6-1.8-2.8-2.3c-1-0.5-2.2-0.7-3.5-0.8
		c-1.3-0.1-2.7-0.1-4.4-0.1H311.7z M311.3,97.2c1.2,0,2.1-0.3,3-0.8c0.8-0.5,1.5-1.2,2-2.1c0.5-0.9,0.9-1.8,1.2-2.9s0.4-2.1,0.4-3.2
		c0-1.3-0.1-2.6-0.4-3.9c-0.3-1.3-0.7-2.5-1.3-3.5c-0.6-1-1.4-1.9-2.3-2.5c-1-0.6-2.1-1-3.5-1c-1.2,0-2.2,0.3-3,0.8
		c-0.8,0.5-1.5,1.2-2,2.1c-0.5,0.9-0.9,1.8-1.1,2.9c-0.2,1.1-0.4,2.1-0.4,3.2c0,1.2,0.1,2.5,0.4,3.8c0.3,1.3,0.7,2.5,1.3,3.6
		c0.6,1.1,1.4,2,2.3,2.7C308.8,96.9,310,97.2,311.3,97.2z"/>
	<path class="st0" d="M349.7,106.7c-1.2,0-2.5,0-4.2-0.1c-1.6,0-3.3-0.1-5-0.1c-1.4,0-2.8,0-4.1,0.1c-1.3,0-2.5,0.1-3.5,0.1
		l-0.1-1.7c1.2-0.1,2.1-0.3,2.8-0.5s1.3-0.5,1.6-1c0.4-0.5,0.7-1.1,0.8-1.9c0.1-0.8,0.2-1.9,0.2-3.3V84.1c0-1-0.1-1.8-0.2-2.4
		s-0.3-1-0.7-1.4s-0.8-0.6-1.5-0.8c-0.7-0.2-1.5-0.4-2.6-0.5l-0.2-1.6c1.1-0.2,2.2-0.4,3.4-0.7c1.1-0.2,2.2-0.5,3.2-0.7
		c1-0.3,1.9-0.5,2.6-0.7c0.8-0.2,1.4-0.4,1.8-0.6l0.5,0.4c-0.1,0.9-0.2,1.9-0.3,2.9c-0.1,1-0.1,2-0.2,3c0,1-0.1,1.9-0.1,2.8
		c0,0.9,0,1.6,0,2.3v14.3c0,0.9,0.1,1.6,0.2,2.1c0.1,0.5,0.4,0.9,0.7,1.2c0.4,0.3,0.9,0.5,1.7,0.6c0.8,0.1,1.8,0.2,3.1,0.3
		L349.7,106.7z M337.1,61.8c0-1.2,0.4-2.2,1.1-2.9c0.7-0.7,1.7-1.1,2.9-1.1c1.3,0,2.3,0.4,3,1.1c0.7,0.7,1.1,1.7,1.1,2.9
		c0,1.2-0.4,2.2-1.1,2.9c-0.7,0.7-1.7,1.1-3,1.1c-1.2,0-2.1-0.4-2.9-1.1C337.5,64,337.1,63,337.1,61.8z"/>
	<path class="st0" d="M381.4,99.9c-0.6,1.3-1.4,2.4-2.4,3.4s-2,1.8-3.2,2.5c-1.2,0.7-2.4,1.2-3.7,1.6c-1.3,0.4-2.6,0.5-3.9,0.5
		c-2.2,0-4.1-0.4-6-1.3s-3.4-2-4.7-3.4c-1.3-1.4-2.3-3-3-4.9c-0.7-1.9-1.1-3.8-1.1-5.9c0-2.5,0.5-4.8,1.5-6.9c1-2.1,2.3-4,4-5.6
		s3.6-2.8,5.8-3.7c2.2-0.9,4.5-1.4,7-1.4c1.2,0,2.4,0.1,3.6,0.3c1.2,0.2,2.4,0.6,3.5,1.2c0.5,0.3,0.9,0.6,1.1,1
		c0.2,0.4,0.3,0.8,0.3,1.2c0,0.6-0.3,1.3-0.8,2c-0.5,0.7-1.3,1.3-2.5,1.9h-0.3c-1.3-1.4-2.6-2.4-3.8-3c-1.2-0.6-2.7-1-4.3-1
		c-1.5,0-2.8,0.3-4,0.9s-2.1,1.4-2.8,2.4c-0.8,1-1.3,2.2-1.7,3.5c-0.4,1.3-0.6,2.7-0.6,4.1c0,1.8,0.3,3.5,0.8,5.1
		c0.5,1.6,1.3,3,2.2,4.3c1,1.2,2.2,2.2,3.6,2.9c1.4,0.7,3.1,1.1,4.9,1.1c1.7,0,3.4-0.4,5-1.1c1.6-0.7,2.9-1.8,3.8-3.4L381.4,99.9z"
		/>
</g>
<sodipodi:namedview  bordercolor="#666666" borderopacity="1.0" fit-margin-bottom="0" fit-margin-left="0" fit-margin-right="0" fit-margin-top="0" id="base" inkscape:current-layer="layer1" inkscape:cx="-523.08597" inkscape:cy="1123.1605" inkscape:document-units="px" inkscape:pageopacity="0.0" inkscape:pageshadow="2" inkscape:window-height="1018" inkscape:window-maximized="1" inkscape:window-width="1920" inkscape:window-x="-8" inkscape:window-y="-8" inkscape:zoom="0.175" pagecolor="#ffffff" showgrid="false">
	</sodipodi:namedview>
<g id="layer2_1_" transform="translate(-74.970545,-88.801726)" inkscape:groupmode="layer" inkscape:label="Layer 2">
	<rect id="rect4542_1_" x="-228.1" y="203.4" class="st0" width="64.1" height="3.8"/>
	<rect id="rect4542-4_1_" x="-122.1" y="203.4" class="st0" width="47.7" height="3.8"/>
</g>
<g id="layer1_1_" transform="translate(-74.970545,-88.801726)" inkscape:groupmode="layer" inkscape:label="Layer 1">
	<text transform="matrix(1 0 0 1 -443.5279 211.5556)" class="st1" style="font-family:'Swiss721BT-Roman'; font-size:110.7678px;">JNS</text>
	<text transform="matrix(1 0 0 1 -220.73 195.54)" class="st0" style="font-family:'ArabicTypesetting'; font-size:110.7678px;">logic</text>
</g>
</svg>
