<?xml version="1.0" encoding="utf-8"?>
<!-- Generator: Adobe Illustrator 22.0.1, SVG Export Plug-In . SVG Version: 6.00 Build 0)  -->
<svg version="1.1"
	 id="svg8" inkscape:version="0.92.3 (2405546, 2018-03-11)" sodipodi:docname="logo.svg" xmlns:cc="http://creativecommons.org/ns#" xmlns:dc="http://purl.org/dc/elements/1.1/" xmlns:inkscape="http://www.inkscape.org/namespaces/inkscape" xmlns:rdf="http://www.w3.org/1999/02/22-rdf-syntax-ns#" xmlns:sodipodi="http://sodipodi.sourceforge.net/DTD/sodipodi-0.dtd" xmlns:svg="http://www.w3.org/2000/svg"
	 xmlns="http://www.w3.org/2000/svg" xmlns:xlink="http://www.w3.org/1999/xlink" x="0px" y="0px" viewBox="0 0 396.9 170.1"
	 style="enable-background:new 0 0 396.9 170.1;" xml:space="preserve">
<style type="text/css">
	.st0{fill:#004071;}
	.st1{fill:#FF6300;}
</style>
<sodipodi:namedview  bordercolor="#666666" borderopacity="1.0" fit-margin-bottom="0" fit-margin-left="0" fit-margin-right="0" fit-margin-top="0" id="base" inkscape:current-layer="layer1" inkscape:cx="-523.08597" inkscape:cy="1123.1605" inkscape:document-units="px" inkscape:pageopacity="0.0" inkscape:pageshadow="2" inkscape:window-height="1018" inkscape:window-maximized="1" inkscape:window-width="1920" inkscape:window-x="-8" inkscape:window-y="-8" inkscape:zoom="0.175" pagecolor="#ffffff" showgrid="false">
	</sodipodi:namedview>
<g id="layer2" transform="translate(-74.970545,-88.801726)" inkscape:groupmode="layer" inkscape:label="Layer 2">
	<rect id="rect4542" x="301.6" y="202.1" class="st0" width="61.2" height="3.7"/>
	<rect id="rect4542-4" x="402.8" y="202.1" class="st0" width="45.5" height="3.7"/>
</g>
<path class="st1" d="M23,96.5c1.4-5.1,9.5-4.5,9.9,0c0,0-0.1,0.8-0.1,1.2c0,0.4,0,1.1,0,1.9c0,5,0.9,8.7,2.8,10.9
	c1.9,2.3,4.9,3.4,9.1,3.4c2.6,0,4.8-0.5,6.5-1.4s3.1-2.4,4.1-4.3c0.4-0.9,0.8-2.2,1-3.9c0.2-1.7,0.3-4.5,0.3-8.4V49.4
	c0-2.4,2-4.4,4.4-4.4h1.6c2.4,0,4.4,2,4.4,4.4V100c0,7.8-1.8,13.7-5.4,17.4s-9.1,5.7-16.6,5.7c-7.4,0-12.9-1.9-16.6-5.8
	s-5.5-9.7-5.5-17.6c0-0.9,0-1.5,0-2C22.9,97.3,23,96.5,23,96.5z"/>
<path class="st1" d="M82.4,116.2V50c0-2.7,2.2-4.9,4.9-4.9H91c1.7,0,3.2,0.8,4.1,2.3l34.1,53c0.8,1.2,1.5,2.3,2.1,3.4s1,2.1,1.4,3
	V50c0-2.7,2.2-4.9,4.9-4.9h0.1c2.7,0,4.9,2.2,4.9,4.9v66.2c0,2.7-2.2,4.9-4.9,4.9H134c-1.7,0-3.2-0.8-4.1-2.2L95.1,65.1
	c-0.6-0.9-1.1-1.8-1.5-2.7c-0.5-0.9-0.9-1.9-1.3-2.9v56.7c0,2.7-2.2,4.9-4.9,4.9l0,0C84.6,121.1,82.4,118.9,82.4,116.2z"/>
<path class="st1" d="M160.8,96.1L160.8,96.1c2.4,0,4.4,1.7,4.8,4c0.7,3.7,2.4,6.7,5.1,9.2c3.6,3.3,8.3,4.9,14.3,4.9
	c5.9,0,10.5-1.2,13.9-3.7s5.1-5.9,5.1-10.1c0-5.8-6.4-10.2-19.1-13.3c-0.8-0.2-1.3-0.3-1.8-0.4c-10.3-2.4-17.1-5.2-20.5-8.2
	c-3.3-3-5-7.3-5-12.8c0-6.8,2.5-12.2,7.4-16.3c5-4.1,11.5-6.2,19.8-6.2c8.4,0,15,2.2,19.8,6.5c3.5,3.1,5.7,7.1,6.7,11.8
	c0.6,3.1-1.7,6-4.8,6h-0.2c-2.3,0-4.3-1.5-4.8-3.7c-0.8-3.3-2.3-6-4.6-8c-3.1-2.7-7.4-4.1-12.8-4.1c-5.1,0-9.1,1.1-12.1,3.3
	s-4.5,5.2-4.5,8.9c0,5.9,6.3,10.3,18.8,13.2c1.9,0.4,3.3,0.8,4.3,1l1.1,0.3c8.2,2,13.6,4.1,16.3,6.4c2,1.7,3.6,3.8,4.6,6.3
	c1.1,2.5,1.6,5.2,1.6,8.2c0,7.3-2.6,13.2-7.9,17.5c-5.2,4.3-12.3,6.5-21.3,6.5c-9.2,0-16.4-2.3-21.6-7c-3.9-3.6-6.5-8.3-7.6-14.2
	C155.3,98.9,157.7,96.1,160.8,96.1z"/>
<path class="st0" d="M246.8,50.4c-0.1,0.9-0.3,1.9-0.4,3.1c-0.1,1.2-0.2,2.3-0.2,3.5c-0.1,1.2-0.1,2.3-0.1,3.3s0,1.9,0,2.5V100
	c0,0.8,0.1,1.5,0.2,2c0.1,0.5,0.3,0.9,0.7,1.2c0.4,0.3,0.9,0.5,1.7,0.6c0.7,0.1,1.7,0.2,3,0.3l-0.1,1.9c-1.1,0-2.4,0-3.9-0.1
	c-1.5,0-3.1-0.1-4.8-0.1c-1.3,0-2.7,0-4,0.1c-1.3,0-2.4,0.1-3.4,0.1l-0.2-1.7c1.2-0.1,2.1-0.2,2.8-0.4c0.7-0.2,1.2-0.5,1.6-1
	c0.4-0.4,0.6-1.1,0.7-1.8c0.1-0.8,0.2-1.8,0.2-3.1V59.2c0-1-0.1-1.8-0.2-2.3c-0.1-0.6-0.3-1-0.7-1.3s-0.9-0.6-1.6-0.7
	c-0.7-0.2-1.7-0.4-2.9-0.6l-0.2-1.5c1-0.2,2.1-0.4,3.2-0.7c1.1-0.2,2.2-0.5,3.2-0.7s1.9-0.5,2.8-0.7c0.8-0.2,1.5-0.5,2-0.7
	L246.8,50.4z"/>
<path class="st0" d="M255.4,91.4c0-2.2,0.4-4.3,1.2-6.2c0.8-2,1.9-3.7,3.3-5.1s3-2.6,4.9-3.4s3.9-1.3,6.1-1.3c2.3,0,4.5,0.4,6.4,1.2
	c1.9,0.8,3.6,1.9,4.9,3.3c1.4,1.4,2.4,3,3.1,4.9s1.1,3.9,1.1,6c0,2.2-0.4,4.3-1.2,6.3c-0.8,1.9-1.9,3.6-3.3,5.1
	c-1.4,1.4-3,2.6-5,3.4c-1.9,0.8-3.9,1.3-6.1,1.3c-2.3,0-4.5-0.4-6.4-1.2c-1.9-0.8-3.5-1.9-4.9-3.3s-2.4-3-3.1-4.9
	C255.8,95.5,255.4,93.5,255.4,91.4z M271.6,104.3c1.5,0,2.8-0.4,3.9-1.1s2-1.7,2.7-2.8c0.7-1.1,1.2-2.4,1.5-3.8s0.5-2.8,0.5-4.2
	c0-1.7-0.2-3.3-0.5-5.1c-0.4-1.7-0.9-3.3-1.7-4.7c-0.8-1.4-1.8-2.5-3.1-3.4c-1.3-0.9-2.8-1.3-4.6-1.3c-1.5,0-2.9,0.4-3.9,1.1
	s-2,1.6-2.7,2.8c-0.7,1.1-1.2,2.4-1.5,3.8s-0.5,2.8-0.5,4.2c0,1.6,0.2,3.2,0.6,5c0.4,1.7,1,3.3,1.8,4.7c0.8,1.4,1.8,2.6,3.1,3.5
	C268.3,103.8,269.9,104.3,271.6,104.3z"/>
<path class="st0" d="M292.8,87.6c0-1.7,0.4-3.3,1.1-4.8s1.7-2.8,2.8-3.9c1.2-1.1,2.6-2,4.1-2.6s3.2-0.9,4.9-0.9
	c2.8,0,5.1,0.6,7.1,1.8c0.4,0.2,0.7,0.4,1.1,0.5c0.3,0.1,0.7,0.1,1.2,0.1c0.4,0,0.7-0.1,0.8-0.1l7.9-0.6l0.4,0.4l-0.3,3h-7.3
	c1.4,1.8,2.1,3.8,2.1,6c0,2-0.4,3.8-1.2,5.4c-0.8,1.5-1.9,2.8-3.1,3.9c-1.3,1.1-2.7,1.8-4.3,2.4c-1.6,0.5-3.1,0.8-4.6,0.8
	c-1.3,0-2.8-0.2-4.3-0.5c-0.8,0.4-1.5,0.9-2,1.7c-0.5,0.7-0.8,1.4-0.8,2.1c0,0.5,0.2,0.9,0.5,1.3c0.4,0.4,0.8,0.7,1.3,0.9
	c0.5,0.2,1.1,0.4,1.7,0.5s1.1,0.2,1.6,0.2c1.3,0,2.7,0,4.2-0.1s2.8-0.1,4.1-0.1c1.4,0,2.8,0.1,4.1,0.4c1.4,0.3,2.6,0.7,3.7,1.4
	s2,1.6,2.7,2.8c0.7,1.2,1,2.7,1,4.4c0,2.2-0.5,4.2-1.4,6.1c-1,1.9-2.3,3.6-4,5s-3.8,2.5-6.2,3.3c-2.4,0.8-5,1.2-7.9,1.2
	c-1.5,0-3-0.2-4.6-0.6c-1.6-0.4-3-1-4.3-1.8s-2.3-1.8-3.1-3c-0.8-1.2-1.2-2.7-1.2-4.3c0-1.2,0.2-2.2,0.7-3.2c0.4-1,1-1.9,1.8-2.7
	c0.7-0.8,1.5-1.6,2.4-2.3c0.9-0.7,1.8-1.3,2.7-2c-1.4-0.5-2.6-1.2-3.6-2.1s-1.5-1.9-1.5-3.3c0-0.6,0.2-1.2,0.6-1.9
	c0.4-0.7,0.9-1.3,1.4-1.9c0.6-0.6,1.1-1.2,1.8-1.7c0.6-0.5,1.2-1,1.6-1.3C294.7,95.5,292.8,92.2,292.8,87.6z M306.6,110.2
	c-1.1,0-2.1,0-2.8,0c-0.7,0-1.4,0.1-1.8,0.2c-0.5,0.1-0.9,0.3-1.3,0.5s-0.8,0.5-1.2,0.8c-1.1,0.9-1.9,1.9-2.4,3s-0.8,2.3-0.8,3.5
	c0,1.4,0.3,2.6,1,3.6s1.6,1.7,2.6,2.3c1.1,0.6,2.3,1,3.6,1.3c1.3,0.3,2.6,0.4,3.8,0.4c1.5,0,3-0.2,4.4-0.5s2.6-0.9,3.6-1.6
	s1.9-1.7,2.5-2.8c0.6-1.1,0.9-2.5,0.9-4.1c0-1.4-0.3-2.7-0.9-3.6c-0.6-1-1.5-1.7-2.7-2.2c-1-0.4-2.1-0.7-3.3-0.8
	c-1.2-0.1-2.6-0.1-4.2-0.1L306.6,110.2L306.6,110.2z M306.2,96.7c1.1,0,2-0.3,2.8-0.8s1.4-1.2,1.9-2s0.9-1.8,1.1-2.8s0.4-2,0.4-3
	c0-1.2-0.1-2.5-0.4-3.7c-0.3-1.3-0.7-2.4-1.2-3.4c-0.6-1-1.3-1.8-2.2-2.4c-0.9-0.6-2-0.9-3.4-0.9c-1.1,0-2.1,0.3-2.9,0.7
	c-0.8,0.5-1.4,1.2-1.9,2s-0.9,1.7-1.1,2.8c-0.2,1-0.3,2-0.3,3.1c0,1.2,0.1,2.4,0.4,3.6s0.7,2.4,1.3,3.4c0.6,1,1.3,1.9,2.2,2.5
	C303.8,96.4,304.9,96.7,306.2,96.7z"/>
<path class="st0" d="M342.9,105.8c-1.1,0-2.4,0-4-0.1c-1.5,0-3.1-0.1-4.8-0.1c-1.3,0-2.7,0-3.9,0.1c-1.3,0-2.4,0.1-3.4,0.1l-0.1-1.7
	c1.1-0.1,2-0.2,2.7-0.4c0.7-0.2,1.2-0.5,1.6-1c0.4-0.4,0.6-1.1,0.7-1.8c0.1-0.8,0.2-1.8,0.2-3.1V84.2c0-1-0.1-1.7-0.2-2.3
	c-0.1-0.6-0.3-1-0.6-1.3s-0.8-0.6-1.4-0.7c-0.6-0.2-1.5-0.3-2.5-0.5l-0.2-1.5c1.1-0.2,2.1-0.4,3.2-0.6s2.1-0.5,3-0.7
	s1.8-0.5,2.5-0.7s1.3-0.4,1.7-0.6l0.5,0.4c-0.1,0.9-0.2,1.8-0.3,2.7c-0.1,1-0.1,1.9-0.2,2.9c0,0.9-0.1,1.8-0.1,2.7
	c0,0.8,0,1.6,0,2.2v13.7c0,0.8,0.1,1.5,0.2,2s0.3,0.9,0.7,1.2c0.4,0.3,0.9,0.5,1.6,0.6s1.7,0.2,3,0.3L342.9,105.8z"/>
<path class="st0" d="M413.4,40.4c0-1.4,0.4-2.6,1.3-3.5s2-1.3,3.4-1.3c1.5,0,2.7,0.4,3.6,1.3c0.9,0.9,1.3,2,1.3,3.5
	c0,1.4-0.4,2.6-1.3,3.5s-2.1,1.3-3.6,1.3c-1.4,0-2.6-0.4-3.4-1.3C413.8,42.9,413.4,41.8,413.4,40.4z"/>
<path class="st0" d="M373.1,99.3c-0.6,1.2-1.3,2.3-2.3,3.2c-0.9,0.9-2,1.7-3.1,2.4c-1.1,0.7-2.3,1.2-3.5,1.5s-2.5,0.5-3.7,0.5
	c-2.1,0-4-0.4-5.7-1.2c-1.7-0.8-3.2-1.9-4.4-3.2c-1.2-1.3-2.2-2.9-2.9-4.7c-0.7-1.8-1-3.6-1-5.6c0-2.4,0.5-4.6,1.4-6.6
	s2.2-3.8,3.8-5.3c1.6-1.5,3.5-2.7,5.5-3.6c2.1-0.9,4.3-1.3,6.7-1.3c1.1,0,2.3,0.1,3.4,0.3c1.2,0.2,2.3,0.6,3.4,1.2
	c0.5,0.2,0.8,0.6,1,1s0.3,0.8,0.3,1.2c0,0.6-0.2,1.3-0.7,1.9c-0.5,0.7-1.3,1.3-2.4,1.8h-0.3c-1.3-1.3-2.5-2.3-3.7-2.9
	s-2.5-0.9-4.1-0.9c-1.4,0-2.7,0.3-3.8,0.9s-2,1.4-2.7,2.3c-0.7,1-1.3,2.1-1.7,3.3c-0.4,1.3-0.6,2.6-0.6,3.9c0,1.7,0.2,3.3,0.7,4.9
	c0.5,1.5,1.2,2.9,2.1,4.1s2.1,2.1,3.4,2.8c1.4,0.7,2.9,1.1,4.7,1.1c1.7,0,3.2-0.3,4.7-1s2.7-1.8,3.7-3.2L373.1,99.3z"/>
<sodipodi:namedview  bordercolor="#666666" borderopacity="1.0" fit-margin-bottom="0" fit-margin-left="0" fit-margin-right="0" fit-margin-top="0" id="base" inkscape:current-layer="layer1" inkscape:cx="-523.08597" inkscape:cy="1123.1605" inkscape:document-units="px" inkscape:pageopacity="0.0" inkscape:pageshadow="2" inkscape:window-height="1018" inkscape:window-maximized="1" inkscape:window-width="1920" inkscape:window-x="-8" inkscape:window-y="-8" inkscape:zoom="0.175" pagecolor="#ffffff" showgrid="false">
	</sodipodi:namedview>
<g id="layer2_1_" transform="translate(-74.970545,-88.801726)" inkscape:groupmode="layer" inkscape:label="Layer 2">
	<rect id="rect4542_1_" x="-228.1" y="203.4" class="st0" width="64.1" height="3.8"/>
	<rect id="rect4542-4_1_" x="-122.1" y="203.4" class="st0" width="47.7" height="3.8"/>
</g>
<g id="layer1_1_" transform="translate(-74.970545,-88.801726)" inkscape:groupmode="layer" inkscape:label="Layer 1">
	<text transform="matrix(1 0 0 1 -443.5279 211.5556)" class="st1" style="font-family:'Swiss721BT-Roman'; font-size:110.7678px;">JNS</text>
	<text transform="matrix(1 0 0 1 -220.73 195.54)" class="st0" style="font-family:'ArabicTypesetting'; font-size:110.7678px;">logic</text>
</g>
<path class="st0" d="M420.4,49.2h-4.3c-0.2,0-0.4-0.2-0.4-0.4v-0.2c0-0.2,0.2-0.4,0.4-0.4h4.3c0.2,0,0.4,0.2,0.4,0.4v0.2
	C420.8,49,420.6,49.2,420.4,49.2z"/>
<path class="st0" d="M420.4,50.7h-4.3c-0.2,0-0.4-0.2-0.4-0.4v-0.2c0-0.2,0.2-0.4,0.4-0.4h4.3c0.2,0,0.4,0.2,0.4,0.4v0.2
	C420.8,50.5,420.6,50.7,420.4,50.7z"/>
<path class="st0" d="M418.2,45l-4.1-1.9c0,0,1.7,1.8,1.7,4.2h4.8c0-2.3,1.7-4.2,1.7-4.2L418.2,45z"/>
<path class="st0" d="M334.8,69.7L334.8,69.7c-2.7,0-4.8-2.2-4.8-4.8v0c0-2.7,2.2-4.8,4.8-4.8h0c2.7,0,4.8,2.2,4.8,4.8v0
	C339.6,67.5,337.5,69.7,334.8,69.7z"/>
</svg>
