<?xml version="1.0" encoding="utf-8"?>
<!-- Generator: Adobe Illustrator 16.0.0, SVG Export Plug-In . SVG Version: 6.00 Build 0)  -->
<!DOCTYPE svg PUBLIC "-//W3C//DTD SVG 1.1//EN" "http://www.w3.org/Graphics/SVG/1.1/DTD/svg11.dtd">
<svg version="1.1" id="Layer_1" xmlns="http://www.w3.org/2000/svg" xmlns:xlink="http://www.w3.org/1999/xlink" x="0px" y="0px"
	 width="400px" height="100px" viewBox="0 0 400 100" enable-background="new 0 0 400 100" xml:space="preserve">
<g>
	<path fill="#FFFFFF" d="M113.572,61.892c0,3.814-0.314,7.059-0.938,9.728c-0.627,2.674-1.565,4.849-2.821,6.527
		c-1.251,1.684-2.813,2.904-4.679,3.667c-1.866,0.759-4.056,1.139-6.558,1.139c-2.214,0-4.207-0.415-5.973-1.24
		c-1.766-0.827-3.275-2-4.526-3.521c-1.255-1.521-2.215-3.367-2.886-5.529c-0.671-2.163-1.007-4.577-1.007-7.247v-3.366h9.461
		c0,7.024,1.644,10.534,4.932,10.534c0.873,0,1.644-0.135,2.315-0.4c0.671-0.267,1.238-0.776,1.71-1.522
		c0.47-0.745,0.828-1.796,1.072-3.144c0.249-1.347,0.371-3.104,0.371-5.267V21.206h9.527V61.892z"/>
	<path fill="#FFFFFF" d="M165.87,81.992h-8.956l-22.713-40.646v40.646h-9.157V21.206h8.991l22.612,40.725V21.206h9.222V81.992z"/>
	<path fill="#FFFFFF" d="M197.578,82.952c-3.646,0-6.829-0.568-9.545-1.701c-2.717-1.134-4.993-2.717-6.829-4.744
		c-1.831-2.027-3.226-4.452-4.177-7.269c-0.95-2.816-1.469-5.908-1.556-9.271h9.222c0.157,2.163,0.602,4.038,1.326,5.625
		c0.729,1.587,1.652,2.904,2.769,3.946c1.116,1.043,2.398,1.81,3.841,2.302c1.443,0.494,2.979,0.741,4.614,0.741
		c1.543,0,2.951-0.187,4.225-0.562c1.277-0.376,2.368-0.898,3.274-1.583c0.902-0.68,1.6-1.514,2.093-2.504
		c0.493-0.984,0.741-2.091,0.741-3.321c0-1.257-0.244-2.324-0.725-3.205c-0.479-0.88-1.256-1.665-2.327-2.359
		c-1.078-0.697-2.486-1.329-4.23-1.905c-1.744-0.571-3.89-1.163-6.441-1.779c-2.908-0.775-5.415-1.678-7.517-2.703
		c-2.102-1.028-3.828-2.245-5.18-3.645c-1.356-1.404-2.355-3.018-3.004-4.845c-0.649-1.832-0.973-3.933-0.973-6.309
		c0-2.564,0.445-4.918,1.343-7.068c0.894-2.15,2.163-4.003,3.807-5.564c1.644-1.565,3.606-2.786,5.887-3.667
		c2.28-0.88,4.823-1.321,7.618-1.321c2.909,0,5.563,0.476,7.966,1.421c2.401,0.951,4.478,2.312,6.223,4.086
		c1.744,1.774,3.116,3.95,4.11,6.527c0.996,2.577,1.526,5.495,1.593,8.752h-9.122c-0.671-6.916-4.172-10.374-10.504-10.374
		c-3.087,0-5.446,0.619-7.077,1.862c-1.635,1.243-2.45,2.943-2.45,5.106c0,0.881,0.178,1.648,0.536,2.302
		c0.358,0.654,0.929,1.256,1.714,1.801c0.779,0.55,1.788,1.051,3.016,1.505c1.231,0.453,2.717,0.894,4.461,1.321
		c1.522,0.375,3.083,0.79,4.684,1.243c1.597,0.453,3.165,0.998,4.696,1.64c1.53,0.641,2.973,1.421,4.325,2.341
		c1.354,0.924,2.546,2.037,3.575,3.345c1.03,1.308,1.839,2.852,2.433,4.625c0.594,1.775,0.89,3.851,0.89,6.228
		c0,2.804-0.484,5.367-1.442,7.691c-0.965,2.319-2.298,4.315-4.011,5.987c-1.71,1.665-3.751,2.969-6.123,3.901
		C202.953,82.484,200.374,82.952,197.578,82.952z"/>
</g>
<path fill="#FFFFFF" d="M300.725,47.07c0.768,0,1.404-0.322,1.917-0.963c0.508-0.642,0.759-1.404,0.759-2.294
	c0-0.414-0.129-0.75-0.399-1.002c-0.271-0.253-0.628-0.384-1.063-0.384c-0.681,0-1.299,0.354-1.85,1.064
	c-0.55,0.707-0.827,1.457-0.827,2.25c0,0.397,0.129,0.715,0.391,0.964C299.913,46.948,300.271,47.07,300.725,47.07z M321.578,62.61
	c-6.83,4.871-11.304,7.304-13.648,7.304c-1.414,0-2.413-0.357-3.102-1.077c-0.698-0.715-1.02-1.792-1.02-3.226
	c0-1.396,0.276-2.752,0.81-4.061c0.532-1.312,1.332-2.546,2.387-3.697c1.369-1.525,2.986-2.773,4.825-3.736
	c1.85-0.96,3.491-1.444,4.921-1.444c0.542,0,0.961,0.109,1.248,0.327c0.296,0.219,0.437,0.516,0.437,0.895
	c0,0.148-0.024,0.314-0.086,0.492c-0.07,0.179-0.176,0.385-0.313,0.61l-1.902,3.851l2.241,0.733l1.963-3.99
	c0.209-0.432,0.365-0.837,0.47-1.216c0.097-0.38,0.148-0.707,0.148-0.99c0-0.776-0.384-1.422-1.16-1.94
	c-0.784-0.52-1.771-0.781-2.973-0.781c-1.832,0-3.74,0.475-5.748,1.417c-2.006,0.946-3.846,2.245-5.528,3.906
	c-1.431,1.417-2.52,2.938-3.271,4.57c-0.27,0.594-0.474,1.189-0.646,1.787c-2.518,1.813-4.642,3.288-6.322,4.387
	c-1.952,1.273-3.104,1.91-3.453,1.91c-0.087,0-0.165-0.053-0.253-0.158c-0.079-0.104-0.122-0.23-0.122-0.384
	c0-0.074,0.035-0.196,0.104-0.364c0.079-0.171,0.167-0.39,0.271-0.599L300.193,51h-2.739l-2.799,5.24
	c-0.287,0.528-1.07,1.367-2.315,2.492c-1.248,1.121-2.34,2.247-4.34,3.343v0.089c-2,1.512-4.169,2.955-6.03,4.323
	c-2.162,1.587-4.196,3.135-6.123,4.644l7.19-14.268l-2.615-0.17c-3.654,4.436-6.618,7.696-8.903,9.78
	c-2.275,2.085-4.002,3.131-5.162,3.131c-1.037,0-1.832-0.357-2.379-1.064c-0.551-0.706-0.831-1.739-0.831-3.1
	c0-1.508,0.402-2.947,1.213-4.317c0.811-1.368,2.023-2.654,3.646-3.863c1.822-1.377,3.837-2.493,6.025-3.353
	c2.188-0.858,4.074-1.29,5.651-1.29c1.038,0,1.953,0.174,2.755,0.523c0.795,0.354,1.579,0.911,2.347,1.688l1.344-1.727
	c-0.795-0.833-1.71-1.443-2.739-1.841c-1.046-0.397-2.231-0.597-3.584-0.597c-2.302,0-4.813,0.567-7.517,1.7
	c-2.713,1.135-5.137,2.652-7.272,4.557c-1.448,1.287-2.53,2.604-3.236,3.964c-0.256,0.494-0.448,1.002-0.611,1.518
	c-1.126,0.743-2.05,1.404-2.729,1.743c-1.012,0.502-1.865,0.855-2.572,0.855h-0.122c1.117-2,1.998-3.104,2.626-4.635
	c0.636-1.526,0.949-2.908,0.949-4.043c0-0.945-0.251-1.752-0.759-2.375c-0.513-0.624-1.149-0.946-1.918-0.946
	c-1.263,0-2.511,0.816-3.749,2.471c-1.238,1.652-1.85,3.462-1.85,5.445c0,0.772,0.124,1.525,0.375,2.263
	c0.244,0.737,0.63,1.49,1.151,2.262c-1.37,1.457-2.59,2.523-3.663,3.213c-1.063,0.688-2.058,1.033-2.975,1.033
	c-0.991,0-1.848-0.449-2.563-1.344c-0.714-0.896-1.072-1.996-1.072-3.301c0-1.962,0.68-4.011,2.032-6.155
	c1.36-2.142,3.088-3.843,5.188-5.106c0.847-0.511,1.919-1.021,3.2-1.531c1.292-0.509,1.938-0.998,1.938-1.473
	c0-0.262-0.088-0.484-0.253-0.663c-0.167-0.178-0.375-0.27-0.619-0.27c-0.585,0-1.518,0.244-2.8,0.737
	c-1.29,0.493-2.485,1.094-3.585,1.81c-2.45,1.626-4.36,3.549-5.728,5.777c-0.729,1.184-1.256,2.392-1.596,3.622
	c-2.928,2.119-5.313,3.774-7.125,4.967c-1.91,1.256-3.026,1.885-3.358,1.885c-0.088,0-0.167-0.053-0.253-0.158
	c-0.078-0.104-0.122-0.213-0.122-0.326c0-0.035,0.027-0.145,0.079-0.323c0.053-0.178,0.129-0.392,0.233-0.637l7.126-18.147
	c0.088-0.205,0.663-1.404,1.745-3.593c1.08-2.188,2.058-4.321,2.93-6.396c0.828-2.001,1.481-3.749,1.962-5.25
	c0.471-1.504,0.715-2.516,0.715-3.043c0-0.362-0.121-0.672-0.357-0.938c-0.244-0.262-0.533-0.393-0.863-0.393
	c-0.453,0-0.854,0.214-1.212,0.65c-0.351,0.431-0.793,1.338-1.335,2.716l-9.437,23.467c-0.165,0.415-0.976,1.199-2.249,2.351
	S226,60.923,224,62.075v2.318c1-0.488,1.727-1.017,2.512-1.568c0.795-0.56,1.624-1.156,2.407-1.802l-2.149,5.407
	c-0.461,1.116-0.756,1.94-0.913,2.477c-0.156,0.54-0.23,0.99-0.23,1.348c0,0.544,0.15,0.949,0.439,1.216
	c0.297,0.266,0.733,0.397,1.31,0.397c1.124,0,4.587-2.05,10.404-6.145c0.729-0.515,1.343-0.947,1.864-1.316
	c-0.013,0.231-0.024,0.462-0.024,0.694c0,2.073,0.524,3.724,1.57,4.938c1.045,1.217,2.45,1.828,4.221,1.828
	c1.344,0,2.737-0.42,4.186-1.261c1.438-0.842,2.983-2.119,4.623-3.838c0.104,0.022,0.234,0.041,0.401,0.057
	c0.461,0.04,0.766,0.058,0.931,0.058c0.934,0,1.963-0.249,3.088-0.75c0.606-0.271,1.312-0.662,2.098-1.153
	c-0.002,0.078-0.014,0.154-0.014,0.233c0,1.983,0.507,3.597,1.527,4.84c1.012,1.247,2.319,1.871,3.914,1.871
	c1.31,0,2.782-0.629,4.422-1.885s3.69-3.344,6.139-6.27l-5.205,10.587c-2.18,2.058-3.933,4.255-5.276,6.598
	c-1.335,2.336-2.006,4.281-2.006,5.83c0,0.492,0.122,0.88,0.375,1.177c0.246,0.292,0.567,0.436,0.969,0.436
	c0.906,0,1.839-0.702,2.799-2.106c0.95-1.408,2.45-4.469,4.482-9.187c2.451-2.529,5.006-4.888,7.675-7.077
	c2.566-2.105,5.292-4.112,8.174-6.028c0.434-0.258,0.878-0.538,1.34-0.864c0.706-0.498,1.447-1.082,2.242-1.74l-3.9,6.933
	c-0.226,0.396-0.391,0.771-0.504,1.12c-0.115,0.349-0.176,0.654-0.176,0.921c0,0.487,0.122,0.889,0.357,1.203
	c0.236,0.31,0.541,0.467,0.916,0.467c1.424,0,5.485-2.367,12.205-7.092c-0.01,0.184-0.031,0.367-0.031,0.551
	c0,2.058,0.54,3.632,1.622,4.727c1.072,1.095,2.633,1.645,4.666,1.645c1.788,0,3.472-0.476,5.505-1.431
	c2.031-0.951,6.047-3.175,10.047-6.667v-2.319L321.578,62.61z M254.097,63.518c-0.253-0.471-0.429-0.92-0.533-1.348
	c-0.104-0.422-0.165-0.862-0.192-1.313c0-1.286,0.306-2.493,0.908-3.623c0.601-1.133,1.194-1.7,1.769-1.7
	c0.253,0,0.481,0.113,0.673,0.34c0.201,0.228,0.296,0.479,0.296,0.764c0,0.662-0.244,1.587-0.75,2.772
	C255.771,60.601,255.045,61.97,254.097,63.518z"/>
<path fill="#FFFFFF" d="M262.734,40.495c0,0-1.329,0.898-0.332,2.529c0.999,1.63,7.861,3.191,6.74,0.968
	C265.729,42.278,266.85,42.654,262.734,40.495z M262.323,44.062c0,0-1.146,0.659-0.287,1.875c0.854,1.208,6.742,2.367,5.782,0.715
	C264.889,45.383,265.852,45.658,262.323,44.062z M278.505,17.377c-1.976-1.727-6.273-4.351-9.501-4.082
	c-3.087,0.241-5.572,1.448-5.663,1.491c-0.231,0.11-5.66,2.748-5.976,10.064c-0.214,5.054,1.614,6.811,2.943,8.093
	c0.589,0.563,1.048,1.003,1.256,1.613c0.497,1.457,0.424,2.677,0.381,3.479c-0.042,0.549-0.058,0.916,0.121,1.229
	c0.424,0.724,6.17,3.802,7.788,3.802l0.57-0.096l0.152-0.192c0.276-0.358,0.405-0.995,0.628-2.176
	c0.195-1.034,0.594-3.188,1.134-3.453c0.21-0.101,0.637-0.218,1.134-0.354c2.225-0.601,6.361-1.717,8.333-6.295
	C284.226,24.881,280.629,19.234,278.505,17.377z M278.901,29.943c-1.701,3.959-5.276,4.928-7.413,5.503
	c-0.588,0.157-1.059,0.288-1.39,0.454c-1.165,0.584-1.545,2.637-1.89,4.447c-0.079,0.419-0.174,0.951-0.256,1.282
	c-1.452-0.297-3.776-2.441-4.636-3.074c0-0.118,0.013-0.283,0.018-0.432c0.056-0.863,0.14-2.302-0.448-4.02
	c-0.315-0.924-0.938-1.526-1.605-2.163c-1.269-1.221-2.704-2.607-2.516-7.038c0.274-6.436,4.972-8.746,5.18-8.851
	c0.026-0.013,2.358-1.147,5.172-1.36c2.621-0.174,6.602,2.11,8.467,3.741C279.38,20.002,281,25.086,278.901,29.943z M261.648,23.046
	c-1.492,5.755,2.925,6.889,2.925,6.889s-1.967-6.959,4.347-12.919C268.92,17.016,263.131,17.29,261.648,23.046z"/>
<g>
</g>
<g>
</g>
<g>
</g>
<g>
</g>
<g>
</g>
<g>
</g>
<g>
</g>
<g>
</g>
<g>
</g>
<g>
</g>
<g>
</g>
<g>
</g>
<g>
</g>
<g>
</g>
<g>
</g>
</svg>
